<svg xmlns="http://www.w3.org/2000/svg" width="17.559" height="15.633" viewBox="0 0 17.559 15.633"><defs><style>.a{fill:#006e74;}</style></defs><path class="a" d="M2316.19,1568.374l-6.129,6.133a.444.444,0,0,1-.627,0l-1.568-1.569a.444.444,0,0,1,0-.628l3.934-3.936h-11.355a.444.444,0,0,1-.444-.444v-2.219a.444.444,0,0,1,.444-.444H2311.8l-3.934-3.936a.444.444,0,0,1,0-.628l1.568-1.569a.444.444,0,0,1,.627,0l5.907,5.911,1.461,1.461a.444.444,0,0,1,0,.628l-1.239,1.24Z" transform="translate(-2300 -1559.004)"/></svg>