<svg xmlns="http://www.w3.org/2000/svg" width="33.05" height="32.238" viewBox="0 0 33.05 32.238"><defs><style>.a{fill:#f05253;}</style></defs><path class="a" d="M392.985,1233.23l-.007-1.5h31.187l.006,1.5Zm21.617-2.507-.08-17.548h6.539l.081,17.548Zm1.5-1.5h3.521l-.067-14.54h-3.521Zm-10.556,1.5-.058-12.5a8.59,8.59,0,0,1-3.635-.862l-5.9,5.906a2.829,2.829,0,0,1-4.017-3.985l5.9-5.921a8.61,8.61,0,1,1,14.179,2.005l.071,15.362ZM407,1218.1l.05,11.116h3.521l-.058-12.534A8.52,8.52,0,0,1,407,1218.1Zm-13.984,2.236a1.311,1.311,0,0,0,.009,1.86,1.352,1.352,0,0,0,1.861,0l5.638-5.661a8.71,8.71,0,0,1-1.875-1.86Zm5.444-10.714a7.146,7.146,0,0,0,7.15,7.089,7.066,7.066,0,0,0,7.085-7.094,7.117,7.117,0,0,0-14.234,0Zm-1.966,21.1-.023-5.014h6.539l.023,5.014Zm1.5-1.5h3.521l-.009-2.006h-3.521Zm6.477-13.537-.032-7.019h7.042l.007,1.5h-5.533l.025,5.515Zm-4.414-6.057a5.493,5.493,0,0,1,5.508-5.515.757.757,0,0,1,.758.752.749.749,0,0,1-.751.752,4,4,0,0,0-4.005,4.011.75.75,0,0,1-.751.752A.757.757,0,0,1,400.059,1209.626Z" transform="translate(-391.121 -1200.992)"/></svg>