<svg xmlns="http://www.w3.org/2000/svg" width="32" height="30.072" viewBox="0 0 32 30.072"><defs><style>.a{fill:#006e74;}</style></defs><path class="a" d="M36.95,34.3H35.327a.927.927,0,1,0,0,1.855H36.95a.927.927,0,0,0,0-1.855Z" transform="translate(-24.411 -25.188)"/><path class="a" d="M22.95,34.3H21.327a.927.927,0,1,0,0,1.855H22.95a.927.927,0,1,0,0-1.855Z" transform="translate(-15.478 -25.188)"/><path class="a" d="M49.327,36.155H50.95a.927.927,0,0,0,0-1.855H49.327a.927.927,0,1,0,0,1.855Z" transform="translate(-33.344 -25.188)"/><path class="a" d="M63.327,36.155H64.95a.927.927,0,1,0,0-1.855H63.327a.927.927,0,1,0,0,1.855Z" transform="translate(-42.276 -25.188)"/><path class="a" d="M36.95,46H35.327a.927.927,0,1,0,0,1.855H36.95a.927.927,0,0,0,0-1.855Z" transform="translate(-24.411 -32.606)"/><path class="a" d="M22.95,46H21.327a.927.927,0,1,0,0,1.855H22.95a.927.927,0,1,0,0-1.855Z" transform="translate(-15.478 -32.606)"/><path class="a" d="M36.95,57.6H35.327a.927.927,0,1,0,0,1.855H36.95a.927.927,0,1,0,0-1.855Z" transform="translate(-24.411 -39.961)"/><path class="a" d="M22.95,57.6H21.327a.927.927,0,1,0,0,1.855H22.95a.927.927,0,1,0,0-1.855Z" transform="translate(-15.478 -39.961)"/><path class="a" d="M35.238,23.341V15.332a3.708,3.708,0,0,0-3.708-3.708h-.26V10.142a.742.742,0,1,0-1.483,0v1.446H26.525V10.142a.742.742,0,1,0-1.483,0v1.446H21.779V10.142a.742.742,0,1,0-1.483,0v1.446H17V10.142a.742.742,0,1,0-1.483,0v1.446H12.25V10.142a.742.742,0,1,0-1.483,0v1.446h-.26A3.708,3.708,0,0,0,6.8,15.3V30.275a3.708,3.708,0,0,0,3.708,3.708H21.557A8.973,8.973,0,1,0,35.238,23.341ZM10.508,32.5a2.225,2.225,0,0,1-2.225-2.225V15.332a2.225,2.225,0,0,1,2.225-2.225h.26v1.075a.742.742,0,1,0,1.483,0V13.108h3.263v1.075a.742.742,0,1,0,1.483,0V13.108h3.263v1.075a.742.742,0,1,0,1.483,0V13.108h3.3v1.075a.742.742,0,0,0,1.483,0V13.108h3.263v1.075a.742.742,0,1,0,1.483,0V13.108h.26a2.225,2.225,0,0,1,2.225,2.225v7.082a8.973,8.973,0,0,0-9.047.7.74.74,0,0,0-.445-.148h-1.3a.742.742,0,0,0,0,1.483h.222a8.973,8.973,0,0,0-2.15,8.046Zm19.317,5.525A7.49,7.49,0,1,1,37.352,30.5,7.49,7.49,0,0,1,29.825,38.024Z" transform="translate(-6.8 -9.4)"/><path class="a" d="M71.039,59.5H67.655V54.727a.927.927,0,0,0-1.855,0v5.7a.927.927,0,0,0,.927.927h4.358a.927.927,0,0,0,0-1.855Z" transform="translate(-44.932 -38.375)"/></svg>