<svg xmlns="http://www.w3.org/2000/svg" width="36.65" height="36.629" viewBox="0 0 36.65 36.629"><defs><style>.a{fill:#006e74;}</style></defs><rect class="a" width="1.527" height="2.291" transform="translate(17.561 6.48)"/><rect class="a" width="2.291" height="1.527" transform="translate(27.869 17.551)"/><rect class="a" width="1.527" height="2.291" transform="translate(17.561 27.859)"/><rect class="a" width="2.291" height="1.527" transform="translate(6.49 17.551)"/><path class="a" d="M31.758,17.3a.767.767,0,1,0-1.084-1.084l-.764.764L24.344,22.55h0L20.3,18.511A.767.767,0,0,0,19.22,19.6l4.039,4.039h0l-.985.985a.763.763,0,0,0,0,1.08l0,0a.763.763,0,0,0,1.08,0l0,0,.985-.985.985.985a.763.763,0,0,0,1.08,0l0,0a.763.763,0,0,0,0-1.08l0,0-.985-.985L31.4,17.664Z" transform="translate(-6.019 -5.319)"/><path class="a" d="M20.325,5.821a14.364,14.364,0,0,1,6.933,1.771,13.822,13.822,0,0,1,2.665,1.871l-2.344,1.619L33.221,13.7l2.756,1.283L35.6,10.15l-.412-4.329-2.054,1.42a17.606,17.606,0,0,0-2.443-2.016A18.325,18.325,0,0,0,2,20.328H5.818A14.508,14.508,0,0,1,20.325,5.821Z" transform="translate(-2 -2.013)"/><path class="a" d="M35.66,26A14.5,14.5,0,0,1,14.22,38.736a13.822,13.822,0,0,1-2.665-1.871L13.9,35.246,8.256,32.627l-1.115-.519L5.5,31.345l.069.764.351,4.07.374,4.329,2.054-1.42A17.606,17.606,0,0,0,10.791,41.1a18.324,18.324,0,0,0,27.632-8.994A18.006,18.006,0,0,0,39.477,26Z" transform="translate(-2.828 -7.685)"/></svg>