<svg xmlns="http://www.w3.org/2000/svg" width="37.776" height="37.776" viewBox="0 0 37.776 37.776"><defs><style>.a{fill:#acacac;}</style></defs><g transform="translate(-500.17 -361.964)"><path class="a" d="M524.239,373.445v-2.569a1.574,1.574,0,0,0-3.147.081v6.289a1.579,1.579,0,0,0,1.573,1.574h6.29a1.574,1.574,0,0,0,0-3.148h-2.49l6.332-6.333-2.226-2.226Z"/><path class="a" d="M515.951,382.385h-6.289a1.574,1.574,0,0,0,0,3.148h2.489l-6.833,6.833,2.226,2.226,6.833-6.833v2.507a1.574,1.574,0,1,0,3.148-.018v-6.289A1.579,1.579,0,0,0,515.951,382.385Z"/><path class="a" d="M534.79,361.964H503.324a3.156,3.156,0,0,0-3.154,3.156v31.466a3.156,3.156,0,0,0,3.156,3.154h31.466a3.155,3.155,0,0,0,3.154-3.156V365.118A3.154,3.154,0,0,0,534.79,361.964Zm0,34.628-31.471-.008h0l.008-31.47,31.471.008Z"/></g></svg>