<svg xmlns="http://www.w3.org/2000/svg" width="24.654" height="18.93" viewBox="0 0 24.654 18.93"><defs><style>.a{fill:#f7941d;}</style></defs><path class="a" d="M26.1,15H17c-1.1,0-2,.5-2,1.125v5.122c0,.621.9,1.124,2,1.125h9.1c1.1,0,2-.5,2-1.125V16.125C28.1,15.5,27.2,15,26.1,15Zm.458,6.248c0,.142-.205.258-.458.258H17c-.253,0-.458-.116-.458-.258V16.125c0-.142.205-.258.458-.258h9.1c.253,0,.458.116.458.258Z" transform="translate(-9.222 -9.222)"/><path class="a" d="M23.883,5.915a.7.7,0,0,0,.77-.592.7.7,0,0,0-.77-.592H22.15V3.458a1.818,1.818,0,0,0-2-1.535H18.49V.592a.8.8,0,0,0-1.541,0V1.923H15.794V1.183a.7.7,0,0,0-.77-.592.7.7,0,0,0-.77.592v.739H13.1V.592A.7.7,0,0,0,12.327,0a.7.7,0,0,0-.77.592V1.923H10.4V1.183A.7.7,0,0,0,9.63.592a.7.7,0,0,0-.77.592v.739H7.7V.592A.7.7,0,0,0,6.934,0a.7.7,0,0,0-.77.592V1.923H4.5a1.818,1.818,0,0,0-2,1.535V4.732H.77A.7.7,0,0,0,0,5.324a.7.7,0,0,0,.77.592H2.5V6.8H1.541a.7.7,0,0,0-.77.592.7.7,0,0,0,.77.592H2.5v.887H.77A.7.7,0,0,0,0,9.465a.7.7,0,0,0,.77.592H2.5v.887H1.541a.7.7,0,0,0-.77.592.7.7,0,0,0,.77.592H2.5v.887H.77a.7.7,0,0,0-.77.592.7.7,0,0,0,.77.592H2.5v1.275a1.818,1.818,0,0,0,2,1.535h1.66v1.331a.7.7,0,0,0,.77.592.7.7,0,0,0,.77-.592V17.007H8.86v.739a.7.7,0,0,0,.77.592.7.7,0,0,0,.77-.592v-.739h1.156v1.331a.7.7,0,0,0,.77.592.7.7,0,0,0,.77-.592V17.007h1.156v.739a.7.7,0,0,0,.77.592.7.7,0,0,0,.77-.592v-.739h1.156v1.331a.8.8,0,0,0,1.541,0V17.007h1.66a1.818,1.818,0,0,0,2-1.535V14.2h1.733a.7.7,0,0,0,.77-.592.7.7,0,0,0-.77-.592H22.15v-.887h.963a.7.7,0,0,0,.77-.592.7.7,0,0,0-.77-.592H22.15v-.887h1.733a.7.7,0,0,0,.77-.592.7.7,0,0,0-.77-.592H22.15V7.986h.963a.7.7,0,0,0,.77-.592.7.7,0,0,0-.77-.592H22.15V5.915Zm-3.274,9.556a.416.416,0,0,1-.458.352H4.5a.416.416,0,0,1-.458-.352V3.458A.416.416,0,0,1,4.5,3.106H20.151a.416.416,0,0,1,.458.352Z"/></svg>