<svg xmlns="http://www.w3.org/2000/svg" width="36.004" height="24" viewBox="0 0 36.004 24"><defs><style>.a{fill:#28a6de;}</style></defs><path class="a" d="M64.419,1219.538l-6.66-12.292a4.441,4.441,0,0,0-4.2-2.241,4.121,4.121,0,0,0-3.882,2.284.469.469,0,0,0-.038.235l.379,3.708a6.347,6.347,0,0,0-4.037,0l.379-3.708a.467.467,0,0,0-.037-.235,4.121,4.121,0,0,0-3.883-2.284,4.441,4.441,0,0,0-4.2,2.241l-6.66,12.292C30.236,1221.63,30,1222.3,30,1223.465c0,3.055,3.287,5.534,7.352,5.537,4.038,0,7.326-2.439,7.368-5.473,0-.006.006-.011.006-.017l.467-4.561a5.369,5.369,0,0,1,5.617,0l.467,4.561c0,.006.005.011.006.017.043,3.054,3.372,5.5,7.437,5.472,4.038-.032,7.287-2.5,7.283-5.536C66,1222.3,65.765,1221.63,64.419,1219.538Zm-27.056,8.231c-3.163,0-5.728-1.927-5.728-4.3s2.565-4.3,5.728-4.3,5.728,1.927,5.728,4.3S40.524,1227.766,37.362,1227.769Zm6.047-7.448a8.267,8.267,0,0,0-6.047-2.39,9.2,9.2,0,0,0-3.527.706l5.93-10.943a2.778,2.778,0,0,1,2.638-1.46,2.512,2.512,0,0,1,2.313,1.325Zm4.59-3.375a7.65,7.65,0,0,0-2.65.458l.475-4.641a3.981,3.981,0,0,1,4.35,0l.475,4.641A7.649,7.649,0,0,0,48,1216.946Zm3.284-9.388a2.512,2.512,0,0,1,2.314-1.325,2.778,2.778,0,0,1,2.638,1.46l5.929,10.943a9.2,9.2,0,0,0-3.527-.706,8.268,8.268,0,0,0-6.048,2.39Zm7.354,20.211c-3.164,0-5.728-1.927-5.728-4.3s2.564-4.3,5.728-4.3,5.728,1.927,5.728,4.3S61.8,1227.766,58.638,1227.769Z" transform="translate(-29.998 -1205.001)"/></svg>