<svg xmlns="http://www.w3.org/2000/svg" width="37.775" height="37.775" viewBox="0 0 37.775 37.775"><defs><style>.a{fill:#acacac;}</style></defs><path class="a" d="M2942.206,1339.817l-13.165,13.165h2.489a1.574,1.574,0,1,1,0,3.148h-6.289a1.579,1.579,0,0,1-1.574-1.574v-6.289a1.574,1.574,0,1,1,3.148,0v2.489l13.165-13.165h-2.489a1.574,1.574,0,1,1,0-3.148h6.289a1.579,1.579,0,0,1,1.574,1.574v6.289a1.574,1.574,0,1,1-3.148,0Zm-26.981-10.661a3.155,3.155,0,0,1,3.156-3.156h31.464a3.155,3.155,0,0,1,3.156,3.156v31.464a3.155,3.155,0,0,1-3.156,3.156h-31.464a3.155,3.155,0,0,1-3.156-3.156Zm3.148,31.464s31.472.008,31.472.008.008-31.472.008-31.472-31.471-.008-31.471-.008S2918.373,1360.62,2918.373,1360.62Z" transform="translate(-2915.225 -1326)"/></svg>