<svg xmlns="http://www.w3.org/2000/svg" width="34" height="34" viewBox="0 0 34 34"><defs><style>.a{fill:#acacac;}.b{fill:none;stroke:#acacac;stroke-miterlimit:10;stroke-width:2px;}</style></defs><g transform="translate(-248.341 -397.384)"><g transform="translate(249.341 398.209)"><g transform="translate(4.194 3.961)"><path class="a" d="M261.216,406.669H275.24a.57.57,0,0,0,0-1.106H261.216a.57.57,0,0,0,0,1.106Z" transform="translate(-252.351 -403.504)"/><path class="a" d="M275.215,413.995h-14a.57.57,0,0,0,0,1.105H275.24a.5.5,0,0,0,.431-.553A.518.518,0,0,0,275.215,413.995Z" transform="translate(-252.351 -402.388)"/><path class="a" d="M275.215,422.4h-14a.571.571,0,0,0,0,1.106H275.24a.5.5,0,0,0,.431-.554A.518.518,0,0,0,275.215,422.4Z" transform="translate(-252.351 -401.275)"/><path class="a" d="M258.357,411.932h-4.671a.552.552,0,0,0-.554.554v4.67a.552.552,0,0,0,.554.554h4.671a.551.551,0,0,0,.553-.554v-4.67A.594.594,0,0,0,258.357,411.932Z" transform="translate(-253.033 -402.661)"/><path class="a" d="M253.574,409h4.795a.507.507,0,0,0,.461-.276.589.589,0,0,0,0-.553l-2.4-4.149a.569.569,0,0,0-.461-.276.506.506,0,0,0-.461.276l-2.4,4.18a.588.588,0,0,0,0,.553A.481.481,0,0,0,253.574,409Z" transform="translate(-253.044 -403.745)"/><path class="a" d="M256.124,420.146a3.073,3.073,0,1,0,3.072,3.073A3.083,3.083,0,0,0,256.124,420.146Z" transform="translate(-253.043 -401.573)"/></g><rect class="b" width="32" height="32" rx="4" transform="translate(0 0.175)"/></g></g></svg>