<svg xmlns="http://www.w3.org/2000/svg" width="25.5" height="17" viewBox="0 0 25.5 17"><defs><style>.a{fill:#e2593e;}</style></defs><path class="a" d="M1.545,13.136H1.159A1.159,1.159,0,0,1,0,11.977V1.159A1.159,1.159,0,0,1,1.159,0H24.341A1.159,1.159,0,0,1,25.5,1.159V11.977a1.159,1.159,0,0,1-1.159,1.159h-.386v2.7A1.159,1.159,0,0,1,22.8,17H21.25a1.159,1.159,0,0,1-1.159-1.159v-2.7H17.773v2.7A1.159,1.159,0,0,1,16.614,17H2.7a1.159,1.159,0,0,1-1.159-1.159Zm4.636,3.091H9.273V12.75a.386.386,0,1,1,.773,0v3.477h3.091V12.75a.386.386,0,1,1,.773,0v3.477h2.7A.387.387,0,0,0,17,15.841V12.75a.387.387,0,0,1,.386-.386h3.091a.387.387,0,0,1,.386.386v3.091a.387.387,0,0,0,.386.386H22.8a.387.387,0,0,0,.386-.386V12.75a.387.387,0,0,1,.386-.386h.773a.387.387,0,0,0,.386-.386V1.159a.387.387,0,0,0-.386-.386H1.159a.387.387,0,0,0-.386.386V11.977a.387.387,0,0,0,.386.386h.773a.387.387,0,0,1,.386.386v3.091a.387.387,0,0,0,.386.386h2.7V12.75a.386.386,0,1,1,.773,0ZM10.818,3.091h3.864a.387.387,0,0,1,.386.386V9.659a.387.387,0,0,1-.386.386H10.818a.387.387,0,0,1-.386-.386V3.477A.387.387,0,0,1,10.818,3.091Zm.386.773V9.273H14.3V3.864ZM3.864,3.091H7.727a.387.387,0,0,1,.386.386V9.659a.387.387,0,0,1-.386.386H3.864a.387.387,0,0,1-.386-.386V3.477A.387.387,0,0,1,3.864,3.091Zm.386.773V9.273H7.341V3.864Zm13.523-.773h3.864a.387.387,0,0,1,.386.386V9.659a.387.387,0,0,1-.386.386H17.773a.387.387,0,0,1-.386-.386V3.477A.387.387,0,0,1,17.773,3.091Zm.386.773V9.273H21.25V3.864Z"/></svg>