<svg xmlns="http://www.w3.org/2000/svg" width="24" height="24" viewBox="0 0 24 24"><defs><style>.a{fill:#006e74;}</style></defs><g transform="translate(-3007.109 -2112.176)"><path class="a" d="M3068.765,2174.565h-9.051a.73.73,0,0,1-.729-.73v-5.226h-5.222a.729.729,0,0,1-.729-.729v-9.051a.729.729,0,0,1,.729-.729h9.051a.729.729,0,0,1,.729.729v5.222h5.222a.729.729,0,0,1,.729.729v9.055A.73.73,0,0,1,3068.765,2174.565Zm-6.681-7.414v-7.592h-7.592v7.592Zm-1.64,5.955h7.592v-7.6h-4.493v2.37a.729.729,0,0,1-.729.729h-2.37Z" transform="translate(-42.155 -42.155)"/><path class="a" d="M3030.375,2136.176h-22.532a.734.734,0,0,1-.734-.734V2112.91a.734.734,0,0,1,.734-.734h22.532a.735.735,0,0,1,.734.734v22.532A.734.734,0,0,1,3030.375,2136.176Zm-21.8-1.468h21.064v-21.064h-21.064Z" transform="translate(0 0)"/></g></svg>