<svg xmlns="http://www.w3.org/2000/svg" width="24.334" height="24.334" viewBox="0 0 24.334 24.334"><defs><style>.a{fill:#006e74;}</style></defs><g transform="translate(-5 -5)"><path class="a" d="M26.36,5H7.974A2.878,2.878,0,0,0,5,7.785V21.763a2.878,2.878,0,0,0,2.974,2.785H9.921v4.137a.675.675,0,0,0,.406.595.582.582,0,0,0,.3.054.911.911,0,0,0,.46-.135l6.138-4.65H26.36a2.878,2.878,0,0,0,2.974-2.785V7.785A2.878,2.878,0,0,0,26.36,5Zm1.6,16.736a1.514,1.514,0,0,1-1.568,1.46H16.951a.911.911,0,0,0-.46.135l-5.164,3.92V23.845a.689.689,0,0,0-.7-.649H7.974a1.514,1.514,0,0,1-1.568-1.46V7.839a1.514,1.514,0,0,1,1.568-1.46h18.44a1.514,1.514,0,0,1,1.568,1.46v13.9Z"/><path class="a" d="M26.448,33.547a3.834,3.834,0,0,0,.162-1.19,2.77,2.77,0,0,0-.811-2.109,2.456,2.456,0,0,0-1.73-.649,2.562,2.562,0,0,0-1.73.622,2.779,2.779,0,0,0-.838,2.217,2.72,2.72,0,0,0,.838,2.19,2.513,2.513,0,0,0,1.73.622,2.806,2.806,0,0,0,.865-.108,4.154,4.154,0,0,0,.514-.243l.649.595.568-.595-.622-.568A1.807,1.807,0,0,0,26.448,33.547Zm-1-.433a1.5,1.5,0,0,1-.189.46l-.541-.514-.568.595.541.514a.623.623,0,0,1-.243.081,1.6,1.6,0,0,1-.379.054,1.342,1.342,0,0,1-.865-.3,1.948,1.948,0,0,1-.568-1.568,2.127,2.127,0,0,1,.406-1.406,1.442,1.442,0,0,1,2.136.027,2.261,2.261,0,0,1,.379,1.379A3.933,3.933,0,0,1,25.447,33.115Z" transform="translate(-12.039 -17.949)"/><path class="a" d="M46.763,33.572a2,2,0,0,1-.135.811.865.865,0,0,1-.865.46.882.882,0,0,1-.892-.46,1.909,1.909,0,0,1-.135-.811V30.3H43.6v3.272a2.616,2.616,0,0,0,.27,1.325,2.444,2.444,0,0,0,3.731,0,2.616,2.616,0,0,0,.27-1.325V30.3H46.736v3.272Z" transform="translate(-28.164 -18.46)"/><path class="a" d="M64.609,33.3h2.6v-.919h-2.6V31.246H67.42V30.3H63.5v5.326h4.056V34.68H64.609Z" transform="translate(-42.683 -18.46)"/></g></svg>