<svg xmlns="http://www.w3.org/2000/svg" width="24" height="24" viewBox="0 0 24 24"><defs><style>.a{fill:#006e74;}</style></defs><g transform="translate(-16 -16.001)"><g transform="translate(16 16.001)"><path class="a" d="M39.879,22.676l-3-1.5A.5.5,0,0,0,36.5,21h-1V17.708l.646.646a.5.5,0,0,0,.707-.707c-1.592-1.591-1.532-1.547-1.642-1.6a.5.5,0,0,0-.4-.009c-.127.053-.067.014-1.662,1.608a.5.5,0,0,0,.707.707l.646-.647V21H31V17.708l.646.646a.5.5,0,0,0,.707-.707c-1.582-1.58-1.516-1.523-1.576-1.562a.5.5,0,0,0-.49-.036c-.12.056-.058.022-1.641,1.6a.5.5,0,0,0,.707.707L30,17.708V21H26.5V17.708l.646.646a.5.5,0,0,0,.707-.707l-1.5-1.5a.5.5,0,0,0-.542-.105c-.132.054-.067.018-1.662,1.608a.5.5,0,0,0,.707.707l.646-.646V21H22V17.708l.646.646a.5.5,0,0,0,.707-.707c-1.58-1.58-1.53-1.547-1.641-1.6a.5.5,0,0,0-.4-.01c-.126.052-.065.013-1.662,1.608a.5.5,0,0,0,.707.707L21,17.708V21H19.5a.5.5,0,0,0-.38.175l-3,1.5a.5.5,0,0,0,.38.825H19v16a.5.5,0,0,0,.5.5h17a.5.5,0,0,0,.5-.5v-16h2.5a.5.5,0,0,0,.38-.825ZM35,38H21V24.5H35ZM18.587,22.5,19.73,22H36.27l1.143.5Z" transform="translate(-16 -16.001)"/><path class="a" d="M161.168,236.334a5.089,5.089,0,0,0,5.168-5.168,5.168,5.168,0,1,0-10.336,0A5.054,5.054,0,0,0,161.168,236.334Zm0-9.3a4.135,4.135,0,1,1-4.135,4.135A4.139,4.139,0,0,1,161.168,227.032Z" transform="translate(-149.168 -215.952)"/><path class="a" d="M217.438,290.833a.628.628,0,0,0,.926-.042l3.138-3.765a.627.627,0,1,0-.964-.8l-2.7,3.237-.769-.769a.628.628,0,0,0-.887.888Z" transform="translate(-206.823 -273.293)"/></g></g></svg>