<svg xmlns="http://www.w3.org/2000/svg" width="24" height="18.816" viewBox="0 0 24 18.816"><defs><style>.a{fill:#006e74;}</style></defs><g transform="translate(-2.6 -16)"><path class="a" d="M26.432,25l-2.3-2.319a.562.562,0,0,0-.81,0,.572.572,0,0,0,0,.815l1.316,1.325H20.158V20.306a2.176,2.176,0,1,0-1.113,0v4.516H13.605V20.306a2.176,2.176,0,1,0-1.113,0v4.516H7.078V20.306a2.176,2.176,0,1,0-1.113,0v4.516H3.182a.591.591,0,0,0-.582.586.575.575,0,0,0,.582.586H9.229V30.51a2.176,2.176,0,1,0,1.113,0V25.994h5.389V30.51a2.176,2.176,0,1,0,1.113,0V25.994h7.767L23.3,27.319a.572.572,0,0,0,0,.815.6.6,0,0,0,.4.178.5.5,0,0,0,.4-.178l2.3-2.319A.552.552,0,0,0,26.432,25Zm-7.893-6.809a1.037,1.037,0,1,1,1.037,1.045A1.03,1.03,0,0,1,18.539,18.191Zm-6.527,0a1.037,1.037,0,1,1,1.037,1.045A1.03,1.03,0,0,1,12.011,18.191Zm-6.553,0A1.037,1.037,0,1,1,6.5,19.236,1.03,1.03,0,0,1,5.459,18.191Zm5.364,14.434A1.037,1.037,0,1,1,9.785,31.58,1.046,1.046,0,0,1,10.822,32.625Zm6.527,0a1.037,1.037,0,1,1-1.037-1.045A1.03,1.03,0,0,1,17.35,32.625Z"/></g></svg>