<svg xmlns="http://www.w3.org/2000/svg" width="16.077" height="18.349" viewBox="0 0 16.077 18.349"><defs><style>.a{fill:#ea973e;}</style></defs><g transform="translate(-13 -7.77)"><path class="a" d="M26.687,7.77H15.39A2.39,2.39,0,0,0,13,10.16h0v13.57a2.39,2.39,0,0,0,2.39,2.39h11.3a2.39,2.39,0,0,0,2.39-2.39V10.16a2.39,2.39,0,0,0-2.39-2.39Zm1.086,15.959a1.086,1.086,0,0,1-1.086,1.086H15.39A1.086,1.086,0,0,1,14.3,23.729V10.16A1.086,1.086,0,0,1,15.39,9.074h11.3a1.086,1.086,0,0,1,1.086,1.086Z" transform="translate(0 0)"/><path class="a" d="M26.127,47.5H25.052a.652.652,0,1,0,0,1.3h1.075a.652.652,0,1,0,0-1.3Z" transform="translate(-8.923 -31.099)"/><path class="a" d="M47.309,47.5H40.942a.652.652,0,1,0,0,1.3h6.368a.652.652,0,1,0,0-1.3Z" transform="translate(-21.361 -31.099)"/><path class="a" d="M26.127,29.5H25.052a.652.652,0,0,0,0,1.3h1.075a.652.652,0,1,0,0-1.3Z" transform="translate(-8.923 -17.009)"/><path class="a" d="M47.309,29.5H40.942a.652.652,0,0,0,0,1.3h6.368a.652.652,0,0,0,0-1.3Z" transform="translate(-21.361 -17.009)"/><path class="a" d="M26.127,65.5H25.052a.652.652,0,0,0,0,1.3h1.075a.652.652,0,0,0,0-1.3Z" transform="translate(-8.923 -45.188)"/><path class="a" d="M47.309,65.5H40.942a.652.652,0,0,0,0,1.3h6.368a.652.652,0,0,0,0-1.3Z" transform="translate(-21.361 -45.188)"/></g></svg>