<svg xmlns="http://www.w3.org/2000/svg" width="35.225" height="36.05" viewBox="0 0 35.225 36.05"><defs><style>.a{fill:#f7941d;}</style></defs><path class="a" d="M755.214,1200.9a5.667,5.667,0,0,0-1.633,1.018,5.162,5.162,0,0,0-1.148,1.39,4.983,4.983,0,0,0-.307.76,3.072,3.072,0,0,0-.1.76v19.787a3.07,3.07,0,0,0,.1.76,4.389,4.389,0,0,0,.307.76,5.229,5.229,0,0,0,1.148,1.406,6.045,6.045,0,0,0,1.633,1.018,5.137,5.137,0,0,0,1.843.372.668.668,0,0,1,.307.081.755.755,0,0,1,.226.226.669.669,0,0,1,.081.307v4.09l7.533-4.607a.016.016,0,0,1,.016-.016.67.67,0,0,1,.307-.081h14.226a5.135,5.135,0,0,0,1.843-.372,6.4,6.4,0,0,0,1.649-1.018,5.169,5.169,0,0,0,1.132-1.406,2.767,2.767,0,0,0,.307-.76,2.466,2.466,0,0,0,.113-.76v-19.787a2.468,2.468,0,0,0-.113-.76,2.987,2.987,0,0,0-.307-.76,5.1,5.1,0,0,0-1.132-1.39,5.979,5.979,0,0,0-1.649-1.018,5.13,5.13,0,0,0-1.843-.372h-22.7A5.132,5.132,0,0,0,755.214,1200.9Zm26.851-1.132a7.129,7.129,0,0,1,1.988,1.213,6.493,6.493,0,0,1,1.406,1.746,5.442,5.442,0,0,1,.42,1.018,4.156,4.156,0,0,1,.146,1.083v19.787a4.154,4.154,0,0,1-.146,1.083,5.437,5.437,0,0,1-.42,1.018,6.5,6.5,0,0,1-1.406,1.746,7.177,7.177,0,0,1-1.988,1.228,6.345,6.345,0,0,1-2.312.469H765.706l-8.325,5.092a.016.016,0,0,1-.016.016.623.623,0,0,1-.614,0,.753.753,0,0,1-.226-.226.668.668,0,0,1-.081-.307v-4.607a6.241,6.241,0,0,1-1.7-.437,7.1,7.1,0,0,1-1.972-1.228,6.9,6.9,0,0,1-1.423-1.746,6.653,6.653,0,0,1-.4-1.018,4.162,4.162,0,0,1-.146-1.083v-19.787a4.164,4.164,0,0,1,.146-1.083,6.66,6.66,0,0,1,.4-1.018,6.887,6.887,0,0,1,1.423-1.746,7.287,7.287,0,0,1,1.972-1.213,6.027,6.027,0,0,1,2.312-.469h22.7A6.028,6.028,0,0,1,782.066,1199.769Zm-24.2,23.214a2.172,2.172,0,0,1-.5-.356,1.715,1.715,0,0,1-.339-.5,1.739,1.739,0,0,1-.113-.307,2,2,0,0,1-.032-.323v-8.083a2,2,0,0,1,.032-.323,1.739,1.739,0,0,1,.113-.307,1.978,1.978,0,0,1,.841-.841,1.726,1.726,0,0,1,.307-.113,2,2,0,0,1,.323-.032h4.058a1.993,1.993,0,0,1,.323.032,1.926,1.926,0,0,1,.808.453,2.166,2.166,0,0,1,.356.5,1.035,1.035,0,0,1,.1.291,1.239,1.239,0,0,1,.049.339v8.083a1.24,1.24,0,0,1-.049.339,1.035,1.035,0,0,1-.1.291,1.837,1.837,0,0,1-.857.857,1.029,1.029,0,0,1-.291.1,1.235,1.235,0,0,1-.34.049H758.5a1.235,1.235,0,0,1-.339-.049A1.029,1.029,0,0,1,757.866,1222.983Zm7.08-9.166a.665.665,0,0,1,.081-.307v-.016a2.139,2.139,0,0,1,.469-.533,3.657,3.657,0,0,1,.517-.356,7.1,7.1,0,0,0,.776-.4,13.855,13.855,0,0,0,1.406-1.552,6.375,6.375,0,0,0,.938-1.633v-.065c0-.291-.065-.679-.065-1a1.815,1.815,0,0,1,.048-.436v-.032a2.483,2.483,0,0,1,.13-.307,1.342,1.342,0,0,1,.194-.259,2.232,2.232,0,0,1,.5-.42,2.388,2.388,0,0,1,.647-.307,2.415,2.415,0,0,1,.76-.129,1.818,1.818,0,0,1,.517.065,1.774,1.774,0,0,1,.533.194,2.8,2.8,0,0,1,.485.323,2.574,2.574,0,0,1,.437.485c.016,0,.016.016.032.032a2.084,2.084,0,0,1,.145.323c.016.1.049.194.065.307.016.21.032.436.032.7a11.023,11.023,0,0,1-.275,2.425v0a8.435,8.435,0,0,0-.323,1.616c.065,0,.146.016.226.016.356.032.792.049,1.261.065.97.016,2.069.016,2.91.048a.059.059,0,0,0,.048.016,2.123,2.123,0,0,1,.744.243,1.885,1.885,0,0,1,.566.5,1.949,1.949,0,0,1,.323.63,2.114,2.114,0,0,1,.113.711,2.3,2.3,0,0,1-.194.922,1.89,1.89,0,0,1-.242.436.286.286,0,0,1-.065.081,2.867,2.867,0,0,1,.113.841,3.163,3.163,0,0,1-.048.55,2,2,0,0,1-.534,1.035l-.048.048a4.274,4.274,0,0,1,.032.453,3.108,3.108,0,0,1-.081.679,2.18,2.18,0,0,1-.259.663h0c-.048.1-.113.178-.162.275a1.949,1.949,0,0,1-.307.339,1.671,1.671,0,0,1-.453.275c-.032.016-.048.016-.064.032a3.823,3.823,0,0,1,.016.42,2.429,2.429,0,0,1-.064.6,1.51,1.51,0,0,1-.227.582,1.776,1.776,0,0,1-.469.517,2.048,2.048,0,0,1-.711.291.314.314,0,0,1-.129.016h-.016c-2.2-.048-3.96-.1-6.159-.146-.016,0-.032,0-.032-.016a2.461,2.461,0,0,1-1.018-.307,7.871,7.871,0,0,1-.922-.534,8.053,8.053,0,0,0-1.714-.937.793.793,0,0,1-.113-.048.6.6,0,0,1-.226-.226.518.518,0,0,1-.081-.307c-.016-2.49-.048-4.979-.065-7.469Z" transform="translate(-750.801 -1199.3)"/></svg>