<svg xmlns="http://www.w3.org/2000/svg" width="17.996" height="16.008" viewBox="0 0 17.996 16.008"><defs><style>.a{fill:#006e74;}</style></defs><path class="a" d="M2301.407,1620.433l6.282-6.281a.455.455,0,0,1,.643,0l1.607,1.607a.455.455,0,0,1,0,.643l-4.032,4.031h11.639a.454.454,0,0,1,.455.454v2.273a.454.454,0,0,1-.455.454h-11.639l4.032,4.031a.455.455,0,0,1,0,.643l-1.607,1.607a.455.455,0,0,1-.643,0l-6.054-6.053-1.5-1.5a.454.454,0,0,1,0-.643l1.27-1.27Z" transform="translate(-2300.004 -1614.02)"/></svg>