<svg xmlns="http://www.w3.org/2000/svg" width="46.629" height="47.72" viewBox="0 0 46.629 47.72"><defs><style>.a{fill:#f7941d;}</style></defs><path class="a" d="M30.4,2225.126a7.5,7.5,0,0,0-2.161,1.348,6.833,6.833,0,0,0-1.519,1.841,6.609,6.609,0,0,0-.407,1.006,4.048,4.048,0,0,0-.128,1.006v26.193a4.048,4.048,0,0,0,.128,1.006,5.825,5.825,0,0,0,.407,1.006,6.915,6.915,0,0,0,1.519,1.862,8,8,0,0,0,2.161,1.348,6.8,6.8,0,0,0,2.44.492.886.886,0,0,1,.407.107,1,1,0,0,1,.3.3.888.888,0,0,1,.107.407v5.414l9.972-6.1a.021.021,0,0,1,.021-.021.886.886,0,0,1,.407-.107H62.886a6.8,6.8,0,0,0,2.44-.492,8.467,8.467,0,0,0,2.183-1.348,6.834,6.834,0,0,0,1.5-1.862,3.676,3.676,0,0,0,.407-1.006,3.277,3.277,0,0,0,.15-1.006v-26.193a3.277,3.277,0,0,0-.15-1.006,3.969,3.969,0,0,0-.407-1.006,6.752,6.752,0,0,0-1.5-1.841,7.912,7.912,0,0,0-2.183-1.348,6.792,6.792,0,0,0-2.44-.492H32.841A6.792,6.792,0,0,0,30.4,2225.126Zm35.544-1.5a9.448,9.448,0,0,1,2.632,1.6,8.6,8.6,0,0,1,1.862,2.311,7.2,7.2,0,0,1,.557,1.348,5.516,5.516,0,0,1,.192,1.434v26.193a5.512,5.512,0,0,1-.192,1.434,7.192,7.192,0,0,1-.557,1.348,8.6,8.6,0,0,1-1.862,2.311,9.508,9.508,0,0,1-2.632,1.626,8.4,8.4,0,0,1-3.06.621H44.29L33.269,2270.6a.021.021,0,0,1-.021.021.828.828,0,0,1-.813,0,1,1,0,0,1-.3-.3.885.885,0,0,1-.107-.407v-6.1a8.267,8.267,0,0,1-2.247-.578,9.389,9.389,0,0,1-2.611-1.626,9.112,9.112,0,0,1-1.883-2.311,8.816,8.816,0,0,1-.535-1.348,5.5,5.5,0,0,1-.193-1.434v-26.193a5.5,5.5,0,0,1,.193-1.434,8.823,8.823,0,0,1,.535-1.348,9.118,9.118,0,0,1,1.883-2.311,9.646,9.646,0,0,1,2.611-1.6,7.977,7.977,0,0,1,3.06-.621H62.886A7.977,7.977,0,0,1,65.946,2223.628Zm-32.035,30.729a2.877,2.877,0,0,1-.663-.471,2.549,2.549,0,0,1-.6-1.07,2.619,2.619,0,0,1-.043-.428v-10.7a2.62,2.62,0,0,1,.043-.428,2.265,2.265,0,0,1,.15-.407,2.616,2.616,0,0,1,1.113-1.113,2.281,2.281,0,0,1,.407-.15,2.652,2.652,0,0,1,.428-.043h5.371a2.653,2.653,0,0,1,.428.043,2.551,2.551,0,0,1,1.07.6,2.872,2.872,0,0,1,.471.663,1.352,1.352,0,0,1,.128.385,1.624,1.624,0,0,1,.064.45v10.7a1.62,1.62,0,0,1-.064.449,1.351,1.351,0,0,1-.128.385,2.428,2.428,0,0,1-1.134,1.134,1.359,1.359,0,0,1-.385.128,1.624,1.624,0,0,1-.449.064H34.746a1.624,1.624,0,0,1-.45-.064A1.364,1.364,0,0,1,33.911,2254.358Zm9.373-12.134a.882.882,0,0,1,.107-.406v-.021a2.829,2.829,0,0,1,.62-.706,4.864,4.864,0,0,1,.685-.471,9.347,9.347,0,0,0,1.027-.535,18.294,18.294,0,0,0,1.862-2.054,8.446,8.446,0,0,0,1.241-2.161v-.086c0-.385-.086-.9-.086-1.326a2.392,2.392,0,0,1,.064-.578v-.043a3.289,3.289,0,0,1,.171-.406,1.8,1.8,0,0,1,.257-.343,2.943,2.943,0,0,1,.663-.556,3.588,3.588,0,0,1,1.862-.578,2.4,2.4,0,0,1,.685.086,2.35,2.35,0,0,1,.706.257,3.706,3.706,0,0,1,.642.428,3.4,3.4,0,0,1,.578.642c.021,0,.021.021.043.043a2.777,2.777,0,0,1,.193.428c.021.129.064.257.086.407.021.278.043.578.043.92a14.614,14.614,0,0,1-.364,3.21v0a11.154,11.154,0,0,0-.428,2.14c.086,0,.193.021.3.021.471.043,1.049.064,1.669.086,1.284.021,2.739.021,3.852.064a.079.079,0,0,0,.064.021,2.808,2.808,0,0,1,.984.321,2.494,2.494,0,0,1,.749.663,2.575,2.575,0,0,1,.428.834,2.8,2.8,0,0,1,.15.942,3.042,3.042,0,0,1-.257,1.219,2.517,2.517,0,0,1-.321.578.376.376,0,0,1-.085.107,3.783,3.783,0,0,1,.15,1.113,4.159,4.159,0,0,1-.064.728,2.646,2.646,0,0,1-.706,1.369l-.064.064a5.608,5.608,0,0,1,.043.6,4.147,4.147,0,0,1-.107.9,2.884,2.884,0,0,1-.343.877h0c-.064.128-.15.235-.214.364a2.577,2.577,0,0,1-.407.449,2.214,2.214,0,0,1-.6.364c-.043.021-.064.021-.086.043a5,5,0,0,1,.021.556,3.209,3.209,0,0,1-.086.792,1.993,1.993,0,0,1-.3.771,2.34,2.34,0,0,1-.621.685,2.713,2.713,0,0,1-.941.385.417.417,0,0,1-.171.021h-.021c-2.91-.064-5.243-.128-8.153-.193-.021,0-.043,0-.043-.021a3.263,3.263,0,0,1-1.348-.406,10.481,10.481,0,0,1-1.22-.706,10.63,10.63,0,0,0-2.268-1.241,1.038,1.038,0,0,1-.15-.064.8.8,0,0,1-.3-.3.685.685,0,0,1-.107-.406c-.021-3.3-.064-6.591-.085-9.886Z" transform="translate(-24.56 -2223.007)"/></svg>