<svg xmlns="http://www.w3.org/2000/svg" width="19.563" height="19.563" viewBox="0 0 19.563 19.563"><defs><style>.a{fill:#245b90;}.b{fill:#ea973e;}</style></defs><path class="a" d="M9.782,19.563A9.782,9.782,0,0,1,9.782,0a.408.408,0,0,1,.408.408V9.374h8.967a.408.408,0,0,1,.408.408A9.782,9.782,0,0,1,9.782,19.563ZM9.374.815a8.967,8.967,0,1,0,9.374,9.374H9.782a.408.408,0,0,1-.408-.408Z"/><path class="b" d="M35.151,8.559H27.408A.408.408,0,0,1,27,8.151V.408A.408.408,0,0,1,27.408,0a8.151,8.151,0,0,1,8.151,8.151A.408.408,0,0,1,35.151,8.559Zm-7.336-.815h6.929A7.336,7.336,0,0,0,27.815.815Z" transform="translate(-15.996)"/></svg>