<svg xmlns="http://www.w3.org/2000/svg" width="28.62" height="31.621" viewBox="0 0 28.62 31.621"><defs><style>.a{fill:#fff;}</style></defs><path class="a" d="M31.177,23.836h3.211V30.76c0,3.219-1.927,5.158-5.251,5.158-3.456,0-5.3-2.021-5.3-5.158V23.836h3.212v6.94a2.067,2.067,0,1,0,4.129,0ZM30.293,48.06l-1.017-.247c-1.134-.28-1.651-.606-1.651-1.166,0-.422.541-.875,1.651-.875a3.721,3.721,0,0,1,2.531,1.056L33.8,45.217a5.229,5.229,0,0,0-4.506-2.185c-3.1,0-4.872,1.7-4.872,3.7,0,1.547,1.1,3.154,3.955,3.862l1.067.263c1.05.263,1.435.46,1.435.97,0,.636-.842.99-1.9.99A3.946,3.946,0,0,1,26.033,51.5l-1.991,1.611c.869,1.576,3.123,2.342,4.951,2.342,3.267,0,5.222-1.525,5.222-3.714C34.214,50.081,33.16,48.751,30.293,48.06Zm22.163-4.686H42.25v2.788h3.49v8.921h3.225V46.162h3.49ZM49.627,27.307H45.079v4.548h4.548Z" transform="translate(-23.836 -23.836)"/></svg>