<svg xmlns="http://www.w3.org/2000/svg" width="21.879" height="23.846" viewBox="0 0 21.879 23.846"><defs><style>.a{fill:#006e74;}</style></defs><g transform="translate(-13 -7.77)"><path class="a" d="M31.627,7.77H16.252A3.182,3.182,0,0,0,13,10.876h0V28.51a3.182,3.182,0,0,0,3.252,3.106H31.627a3.182,3.182,0,0,0,3.252-3.106V10.876A3.182,3.182,0,0,0,31.627,7.77Zm1.478,20.74a1.446,1.446,0,0,1-1.478,1.412H16.252a1.446,1.446,0,0,1-1.478-1.412V10.876a1.446,1.446,0,0,1,1.478-1.412H31.627a1.446,1.446,0,0,1,1.478,1.412Z" transform="translate(0 0)"/><path class="a" d="M26.829,29.5H25.317a1.108,1.108,0,0,0,0,2.183h1.512a1.108,1.108,0,0,0,0-2.183Z" transform="translate(-7.527 -15.73)"/><path class="a" d="M26.829,29.5H25.317a1.108,1.108,0,0,0,0,2.183h1.512a1.108,1.108,0,0,0,0-2.183Z" transform="translate(-7.527 -10.761)"/><path class="a" d="M26.829,29.5H25.317a1.108,1.108,0,0,0,0,2.183h1.512a1.108,1.108,0,0,0,0-2.183Z" transform="translate(-7.527 -5.791)"/><path class="a" d="M49.043,29.5H41.1c-.449,0-.813.489-.813,1.091s.364,1.091.813,1.091h7.94c.449,0,.813-.489.813-1.091S49.492,29.5,49.043,29.5Z" transform="translate(-18.155 -10.761)"/><path class="a" d="M49.043,29.5H41.1c-.449,0-.813.489-.813,1.091s.364,1.091.813,1.091h7.94c.449,0,.813-.489.813-1.091S49.492,29.5,49.043,29.5Z" transform="translate(-18.155 -15.731)"/><path class="a" d="M49.043,29.5H41.1c-.449,0-.813.489-.813,1.091s.364,1.091.813,1.091h7.94c.449,0,.813-.489.813-1.091S49.492,29.5,49.043,29.5Z" transform="translate(-18.155 -5.791)"/></g></svg>