<svg xmlns="http://www.w3.org/2000/svg" width="30.245" height="30.247" viewBox="0 0 30.245 30.247"><defs><style>.a,.c,.d{fill:#29abe2;}.a{stroke:#29abe2;}.a,.d{stroke-linecap:round;stroke-linejoin:round;}.b{fill:#0071bc;}.d{stroke:#0071bc;}</style></defs><g transform="translate(-502.892 -374.39)"><path class="a" d="M503.558,380.567h5.24" transform="translate(0.382 3.545)"/><path class="a" d="M510.836,380.567h5.24" transform="translate(4.56 3.545)"/><rect class="b" width="6.655" height="1.815" transform="translate(508.587 400.704)"/><rect class="b" width="6.655" height="2.419" transform="translate(508.587 396.901)"/><circle class="c" cx="0.604" cy="0.604" r="0.604" transform="translate(517.254 398.46)"/><path class="c" d="M504.223,389.964a1.485,1.485,0,0,1,1.048,0V388.82h-1.048Z" transform="translate(0.764 8.282)"/><path class="c" d="M504.223,391.548v1.144h1.048v-1.144A1.468,1.468,0,0,1,504.223,391.548Z" transform="translate(0.764 9.848)"/><path class="c" d="M532.6,387.615H503.432a.534.534,0,0,0-.54.524v8.383a.532.532,0,0,0,.54.524H532.6a.532.532,0,0,0,.54-.524v-8.383A.534.534,0,0,0,532.6,387.615Zm-.54,7.335a1.065,1.065,0,0,1-1.08,1.048H505.053a1.065,1.065,0,0,1-1.08-1.048v-5.24a1.066,1.066,0,0,1,1.08-1.048h25.925a1.066,1.066,0,0,1,1.08,1.048Z" transform="translate(0 7.59)"/><circle class="c" cx="0.604" cy="0.604" r="0.604" transform="translate(504.707 398.46)"/><path class="c" d="M510.836,394.186h5.24v-5.24h-5.24Zm2.619-4.191a1.574,1.574,0,1,1-1.574,1.574A1.575,1.575,0,0,1,513.455,389.994Z" transform="translate(4.56 8.355)"/><circle class="c" cx="0.604" cy="0.604" r="0.604" transform="translate(529.81 398.46)"/><path class="c" d="M520.635,391.645a1.531,1.531,0,0,1-.524-.1v1.144h1.048v-1.144A1.531,1.531,0,0,1,520.635,391.645Z" transform="translate(9.883 9.847)"/><path class="c" d="M521.159,389.964V388.82h-1.048v1.144A1.485,1.485,0,0,1,521.159,389.964Z" transform="translate(9.883 8.282)"/><rect class="b" width="7.259" height="1.815" transform="translate(520.542 400.704)"/><rect class="b" width="7.259" height="2.419" transform="translate(520.542 396.901)"/><path class="c" d="M507.614,383.3h-2.1v-1.047h2.1Zm-4.722-8.381a.524.524,0,0,1,.524-.524H509.7a.524.524,0,0,1,.524.524v5.762a.524.524,0,0,1-.524.524h-6.286a.524.524,0,0,1-.524-.524h0Z" transform="translate(0)"/><path class="c" d="M514.892,383.3h-2.1v-1.047h2.1Zm-4.722-8.381a.524.524,0,0,1,.524-.524h6.286a.524.524,0,0,1,.524.524h0v5.762a.524.524,0,0,1-.524.524h-6.286a.524.524,0,0,1-.524-.524h0Z" transform="translate(4.177)"/><path class="c" d="M522.17,383.3h-2.1v-1.047h2.1Zm2.613-2.619a.524.524,0,0,1-.524.524h-6.286a.524.524,0,0,1-.524-.524h0v-5.762a.524.524,0,0,1,.524-.524h6.286a.524.524,0,0,1,.524.524h0Z" transform="translate(8.355)"/><path class="a" d="M518.114,380.567h5.24" transform="translate(8.737 3.545)"/><path class="d" d="M506.29,382v3.667h11v2.095" transform="translate(1.95 4.365)"/><path class="d" d="M522.722,382v3.667h-11v2.095" transform="translate(5.067 4.365)"/><path class="d" d="M512.5,381.972v3.667" transform="translate(5.515 4.352)"/></g></svg>