<svg xmlns="http://www.w3.org/2000/svg" width="16" height="15.972" viewBox="0 0 16 15.972"><defs><style>.a{fill:none;}.b{fill:#acacac;}.c{fill:#aeaeae;}</style></defs><g transform="translate(0 -0.171)"><path class="a" d="M14.82,10.234a4.757,4.757,0,1,0,4.757,4.757A4.762,4.762,0,0,0,14.82,10.234Zm2.938,5.091a.284.284,0,0,1-.253.308H12.135a.285.285,0,0,1-.254-.308v-.667a.285.285,0,0,1,.254-.308H17.5a.285.285,0,0,1,.253.308v.667Z" transform="translate(-8.296 -8.296)"/><path class="b" d="M15.894,14.422,10.888,9.417a5.945,5.945,0,0,0-9.147-7.5,5.945,5.945,0,0,0,7.537,9.125l5,5a.5.5,0,0,0,.693-.082l.84-.84A.5.5,0,0,0,15.894,14.422Zm-9.95-3.974a4.334,4.334,0,1,1,4.334-4.334A4.338,4.338,0,0,1,5.944,10.448Z" transform="translate(0 0)"/><path class="c" d="M26.042,33.667H20.673a.285.285,0,0,0-.254.308v.667a.284.284,0,0,0,.254.308h5.369a.284.284,0,0,0,.253-.308v-.667A.285.285,0,0,0,26.042,33.667Z" transform="translate(-17.312 -28.178)"/></g></svg>