<svg xmlns="http://www.w3.org/2000/svg" width="16.05" height="16.022" viewBox="0 0 16.05 16.022"><defs><style>.a{fill:none;}.b{fill:#acacac;}</style></defs><path class="a" d="M14.41,10.063a4.347,4.347,0,1,0,4.347,4.347A4.352,4.352,0,0,0,14.41,10.063ZM17.387,15H15v2.391a.281.281,0,0,1-.281.281h-.61a.281.281,0,0,1-.281-.281V15H11.433a.281.281,0,0,1-.281-.281v-.61a.281.281,0,0,1,.281-.281h2.391V11.433a.281.281,0,0,1,.281-.281h.61a.281.281,0,0,1,.281.281v2.391h2.391a.281.281,0,0,1,.281.281v.61A.281.281,0,0,1,17.387,15Z" transform="translate(-8.448 -8.448)"/><path class="b" d="M15.943,14.3,10.922,9.274A5.963,5.963,0,0,0,1.746,1.746,5.962,5.962,0,0,0,5.962,11.924,5.918,5.918,0,0,0,9.307,10.9l5.016,5.016a.5.5,0,0,0,.7-.082l.843-.843A.5.5,0,0,0,15.943,14.3ZM5.962,10.309a4.347,4.347,0,1,1,4.347-4.347A4.352,4.352,0,0,1,5.962,10.309Z"/><path class="b" d="M23.083,19.519H20.691V17.128a.281.281,0,0,0-.281-.281H19.8a.281.281,0,0,0-.281.281v2.391H17.128a.281.281,0,0,0-.281.281v.61a.281.281,0,0,0,.281.281h2.391v2.391a.281.281,0,0,0,.281.281h.61a.281.281,0,0,0,.281-.281V20.691h2.391a.281.281,0,0,0,.281-.281V19.8A.281.281,0,0,0,23.083,19.519Z" transform="translate(-14.143 -14.143)"/></svg>