<svg xmlns="http://www.w3.org/2000/svg" width="33.051" height="32.238" viewBox="0 0 33.051 32.238"><defs><style>.a{fill:#fff;}</style></defs><path class="a" d="M392.985,1244.231l-.007-1.5h31.186l.007,1.5Zm21.617-2.507-.08-17.548h6.539l.081,17.548Zm1.5-1.5h3.52l-.067-14.54h-3.521Zm-10.557,1.5-.058-12.5a8.616,8.616,0,0,1-3.635-.862l-5.9,5.906a2.83,2.83,0,0,1-4.018-3.986l5.9-5.921a8.61,8.61,0,1,1,14.179,2.005l.071,15.362ZM407,1229.1l.05,11.116h3.521l-.058-12.534A8.516,8.516,0,0,1,407,1229.1Zm-13.984,2.237a1.311,1.311,0,0,0,.009,1.86,1.352,1.352,0,0,0,1.861,0l5.638-5.661a8.72,8.72,0,0,1-1.875-1.859Zm5.444-10.714a7.145,7.145,0,0,0,7.15,7.089,7.066,7.066,0,0,0,7.085-7.094,7.117,7.117,0,0,0-14.234,0Zm-1.966,21.1-.023-5.014h6.539l.023,5.014Zm1.5-1.5h3.521l-.009-2.005h-3.521Zm6.477-13.537-.032-7.019h7.042l.007,1.5h-5.533l.025,5.515Zm-4.414-6.057a5.493,5.493,0,0,1,5.508-5.514.752.752,0,1,1,.006,1.5,3.994,3.994,0,0,0-4.005,4.01.75.75,0,0,1-.751.752A.757.757,0,0,1,400.059,1220.626Z" transform="translate(-391.12 -1211.993)"/></svg>