<svg xmlns="http://www.w3.org/2000/svg" width="24" height="24" viewBox="0 0 24 24"><defs><style>.a{fill:#006e74;}</style></defs><g transform="translate(-7 -7)"><path class="a" d="M30.594,17.268l-2.5-1.03a9.319,9.319,0,0,0-.709-1.706l1.04-2.5a.66.66,0,0,0-.147-.727L26.7,9.726a.679.679,0,0,0-.728-.146l-2.5,1.04a9.505,9.505,0,0,0-1.7-.709l-1.03-2.5A.664.664,0,0,0,20.122,7H17.887a.659.659,0,0,0-.614.411l-1.03,2.5a9.221,9.221,0,0,0-1.706.709l-2.5-1.04a.663.663,0,0,0-.728.146L9.727,11.305a.676.676,0,0,0-.147.727l1.04,2.5a9.515,9.515,0,0,0-.709,1.706l-2.5,1.03A.664.664,0,0,0,7,17.882v2.235a.659.659,0,0,0,.411.615l2.5,1.03a9.25,9.25,0,0,0,.709,1.706l-1.04,2.5a.661.661,0,0,0,.147.728l1.578,1.578a.669.669,0,0,0,.727.147l2.5-1.04a9.515,9.515,0,0,0,1.706.709l1.03,2.5a.664.664,0,0,0,.614.411h2.235a.659.659,0,0,0,.615-.411l1.03-2.5a9.25,9.25,0,0,0,1.706-.709l2.5,1.04a.661.661,0,0,0,.728-.147l1.578-1.578a.679.679,0,0,0,.147-.728l-1.04-2.5a9.515,9.515,0,0,0,.709-1.706l2.5-1.03A.664.664,0,0,0,31,20.117V17.882A.657.657,0,0,0,30.594,17.268Zm-.922,2.405-2.386.983a.678.678,0,0,0-.392.444,8.168,8.168,0,0,1-.827,1.994.668.668,0,0,0-.038.591l.992,2.386-.95.95-2.386-.992a.668.668,0,0,0-.591.038,8.168,8.168,0,0,1-1.994.827.66.66,0,0,0-.444.392l-.983,2.386H18.331l-.983-2.386a.676.676,0,0,0-.444-.392,8.2,8.2,0,0,1-1.994-.827.666.666,0,0,0-.59-.038l-2.382.992-.95-.95.992-2.386a.665.665,0,0,0-.037-.591,8.129,8.129,0,0,1-.827-1.994.66.66,0,0,0-.392-.444l-2.382-.983V18.331l2.377-.983a.678.678,0,0,0,.392-.444,8.161,8.161,0,0,1,.827-1.994.668.668,0,0,0,.038-.591l-.993-2.386.95-.95,2.382.993a.666.666,0,0,0,.59-.038,8.152,8.152,0,0,1,1.995-.827.662.662,0,0,0,.444-.392l.983-2.387h1.342l.987,2.387a.685.685,0,0,0,.444.392,8.129,8.129,0,0,1,1.994.827.668.668,0,0,0,.591.038l2.386-.993.95.95-.992,2.386a.668.668,0,0,0,.038.591,8.2,8.2,0,0,1,.827,1.994.658.658,0,0,0,.392.444l2.386.983Z"/><path class="a" d="M19,18.052a2.65,2.65,0,1,0-2.651-2.65A2.655,2.655,0,0,0,19,18.052Zm0-3.974A1.319,1.319,0,1,1,17.684,15.4,1.32,1.32,0,0,1,19,14.078Z"/><path class="a" d="M19,18.809a4.882,4.882,0,0,0-4.876,4.876.664.664,0,0,0,.666.666h8.43a.64.64,0,0,0,.657-.77A4.882,4.882,0,0,0,19,18.809Zm-3.482,4.21a3.546,3.546,0,0,1,6.965,0Z"/></g></svg>