<svg xmlns="http://www.w3.org/2000/svg" width="31.229" height="35.091" viewBox="0 0 31.229 35.091"><defs><style>.a{fill:#fff;}</style></defs><path class="a" d="M38.459,1607.419a4.943,4.943,0,0,1-1.4-.208,4.538,4.538,0,0,1-3.336-4.267.528.528,0,0,1-.01-.1v-.007a.524.524,0,0,1,.008-.093,4.535,4.535,0,0,1,1.563-3.4,5.037,5.037,0,0,1,1.119-.716,8.2,8.2,0,0,1,.655-5.508v-3.752a.528.528,0,0,1,.007-.087V1584.1a.526.526,0,0,1-.014-.122v-5.394a.527.527,0,0,1,.014-.122V1573.9a1.527,1.527,0,0,1,1.2-1.522,9.31,9.31,0,0,1,1.269-.036H53.2a1.55,1.55,0,0,1,1.42.89,2.561,2.561,0,0,1,.145,1.092V1593.3a4.841,4.841,0,0,1,1.485.367,4.677,4.677,0,0,1,.943.534.635.635,0,0,0,.417-.2l.017-.03a2.454,2.454,0,0,0,.108-1.213V1587.4a2.345,2.345,0,0,1-1.767-2.27,2.371,2.371,0,0,1,4.739-.1,1.028,1.028,0,0,1,0,.2,2.433,2.433,0,0,1-1.891,2.223v5.447a3.238,3.238,0,0,1-.2,1.513.4.4,0,0,1-.057.11,1.78,1.78,0,0,1-.511.485,4.658,4.658,0,0,1,.858,1.6,5.725,5.725,0,0,1,3.127,1.181v-4.932a2.35,2.35,0,0,1-1.831-2.287,2.37,2.37,0,0,1,4.739-.1,1.029,1.029,0,0,1,0,.2,2.439,2.439,0,0,1-1.826,2.208v5.864a.635.635,0,0,0,.031.2,5.311,5.311,0,0,1,.516.908l.051.1a.6.6,0,0,1,.05.141,5.171,5.171,0,0,1,.029,3.766,5.583,5.583,0,0,1-3.266,3.218,6.7,6.7,0,0,1-2.408.338H39.161c-.128,0-.292.015-.456.015A1.747,1.747,0,0,1,38.459,1607.419Zm.018,0Zm.389-.919Zm6.395-.158H58.214a5.662,5.662,0,0,0,1.666-.172A4.544,4.544,0,0,0,61.833,1605a4.321,4.321,0,0,0,.947-4.492l0,0c-.174-.347-.417-.679-.577-1.037a4.618,4.618,0,0,0-3.705-1.787.547.547,0,0,1-.519-.4,3.771,3.771,0,0,0-1.227-2.079.466.466,0,0,1-.193-.152,3.285,3.285,0,0,0-.822-.44,3.923,3.923,0,0,0-3.641.488.451.451,0,0,1-.652-.1.544.544,0,0,1-.134-.235,7.163,7.163,0,0,0-5.335-4.863h-.058a.545.545,0,0,1-.249-.056q-.2-.032-.406-.051a7.3,7.3,0,0,0-7.14,3.641.472.472,0,0,1-.094.17,6.985,6.985,0,0,0-.585,4.66,4.851,4.851,0,0,1,2.968.276,4.692,4.692,0,0,1,2.779,3.627.385.385,0,0,1,.011.05,5.8,5.8,0,0,1,.058.7.54.54,0,0,1-1.081,0h-.007c0-.027,0-.053,0-.08-.009-.113-.01-.224-.016-.335,0-.044-.014-.106,0-.025,0-.014,0-.027,0-.041a.818.818,0,0,1-.015-.086,3.6,3.6,0,0,0-2.6-3,3.768,3.768,0,0,0-4.052,1.343,3.521,3.521,0,0,0-.144,3.929,3.683,3.683,0,0,0,1.528,1.343,3.522,3.522,0,0,0,.967.309c.206.032.47.009.7.05Zm-2.012-3.412Zm15.758-5.94Zm-6.905-3.171a4.88,4.88,0,0,1,1.578-.495v-3.417H48.746A8.1,8.1,0,0,1,52.1,1593.819Zm10.474-4.536a1.252,1.252,0,1,0,.037,0Zm-24.431,2.252A8.411,8.411,0,0,1,40.1,1589.9H38.145Zm15.535-2.7v-4.316H38.145v4.309H42.88a7.9,7.9,0,0,1,2.5-.079q.272.035.54.086Zm4.657-4.984a1.252,1.252,0,1,0,.037,0Zm-14.36-.41h9.7v-4.317H38.145v4.317Zm0-5.395h9.7v-3.836c0-.273.043-.668-.317-.753a1.653,1.653,0,0,0-.375-.021H39.046c-.4,0-.9-.043-.9.517v4.094Zm1.939,10.444a1.731,1.731,0,1,1,1.728-1.869.94.94,0,0,1,0,.285,1.747,1.747,0,0,1-1.667,1.585Zm-.655-1.731a.656.656,0,1,0,.627-.633A.588.588,0,0,0,45.26,1586.755Zm-3.511,1.731a1.731,1.731,0,1,1,1.728-1.855.594.594,0,0,1,.009.124.58.58,0,0,1-.012.147,1.747,1.747,0,0,1-1.666,1.585Zm-.656-1.731a.656.656,0,1,0,.627-.633A.588.588,0,0,0,41.093,1586.755Zm8.989,1.616a1.731,1.731,0,1,1,1.728-1.866.935.935,0,0,1,0,.282,1.747,1.747,0,0,1-1.667,1.585Zm-.655-1.731a.656.656,0,0,0,1.311,0,.645.645,0,0,0-.678-.63A.594.594,0,0,0,49.427,1586.64Zm-7.678-3.627a1.731,1.731,0,1,1,1.727-1.862.886.886,0,0,1,0,.28,1.753,1.753,0,0,1-1.666,1.583Zm-.656-1.724a.657.657,0,0,0,1.312-.007.647.647,0,0,0-.679-.627A.593.593,0,0,0,41.093,1581.289Zm4.822,1.716a1.731,1.731,0,1,1,1.726-1.876.569.569,0,0,1,.012.145.578.578,0,0,1-.012.149,1.753,1.753,0,0,1-1.667,1.583Zm-.655-1.724a.657.657,0,0,0,1.312-.007.647.647,0,0,0-.679-.627A.593.593,0,0,0,45.26,1581.282Zm4.822,1.608a1.731,1.731,0,1,1,1.726-1.879.914.914,0,0,1,0,.3,1.753,1.753,0,0,1-1.667,1.583Zm-.655-1.724a.656.656,0,1,0,.63-.637A.592.592,0,0,0,49.427,1581.167Zm.655-3.505a1.731,1.731,0,1,1,1.728-1.866.935.935,0,0,1,0,.282,1.747,1.747,0,0,1-1.667,1.585Zm-.655-1.731a.656.656,0,0,0,1.311,0,.645.645,0,0,0-.678-.63A.594.594,0,0,0,49.427,1575.931Zm-3.512,1.609a1.731,1.731,0,1,1,1.728-1.869.587.587,0,0,1,.01.139.579.579,0,0,1-.012.147,1.748,1.748,0,0,1-1.667,1.585Zm-.655-1.731a.656.656,0,1,0,.629-.636A.591.591,0,0,0,45.26,1575.809Zm-3.511,1.731a1.731,1.731,0,1,1,1.728-1.855.6.6,0,0,1,.009.125.579.579,0,0,1-.012.147,1.748,1.748,0,0,1-1.666,1.585Zm-.656-1.731a.656.656,0,1,0,.629-.636A.591.591,0,0,0,41.093,1575.809Z" transform="translate(-33.719 -1572.343)"/></svg>