<svg xmlns="http://www.w3.org/2000/svg" width="18.682" height="24" viewBox="0 0 18.682 24"><defs><style>.a{fill:#006e74;}</style></defs><g transform="translate(-129.12 -35.41)"><path class="a" d="M145.127,45.475h1.289l-.645-.92Zm2.669.555v8.861a.476.476,0,0,1-.476.476h-3.11a.476.476,0,0,1-.476-.476v-8.94a.475.475,0,0,1,.135-.332l1.514-2.163a.475.475,0,0,1,.78,0l1.554,2.219a.473.473,0,0,1,.079.35Zm-3.11,6.622h2.157V46.427h-2.157Zm2.157.953h-2.157v.811h2.157Zm-17.2-14.948H133.4v-.206a.521.521,0,0,1,.52-.52h.862v-2a.521.521,0,0,1,.52-.52h4.884a.521.521,0,0,1,.52.52v2h.862a.521.521,0,0,1,.52.52v.206h3.764a.521.521,0,0,1,.52.52v4.043a.789.789,0,0,0-1.041-.151V39.7h-3.243v.738a.521.521,0,0,1-.52.52h-7.648a.521.521,0,0,1-.52-.52V39.7h-3.243V58.37h15.175V55.685h1.041v3.2a.52.52,0,0,1-.52.52H129.64a.52.52,0,0,1-.52-.52V39.176a.521.521,0,0,1,.52-.52Zm9.66,8.379a.521.521,0,0,1-.736-.736l1-1-1-1a.521.521,0,0,1,.736-.736l1,1,1-1a.521.521,0,0,1,.736.736l-1,1,1,1a.521.521,0,0,1-.736.736l-1-1-1,1Zm-4.983,5.458a2.031,2.031,0,1,1-2.031,2.031A2.035,2.035,0,0,1,134.317,52.492Zm0,1.04a.991.991,0,1,0,.99.991A.989.989,0,0,0,134.317,53.533Zm6.245-1.252v-2.56h-6.107a.6.6,0,0,1-.563-.585V46.06h-1.287a.155.155,0,0,1-.127-.244l1.8-3.121a.155.155,0,0,1,.268,0l1.808,3.133a.155.155,0,0,1-.134.231h-1.288v2.62h6.1a.531.531,0,0,1,.568.525v3.076h1.287a.155.155,0,0,1,.127.244l-1.8,3.121a.155.155,0,0,1-.268,0l-1.809-3.133a.155.155,0,0,1,.134-.231Zm-6.118-12.367h6.608V38.97h-.862a.52.52,0,0,1-.52-.52v-2h-3.843v2a.52.52,0,0,1-.52.52h-.862v.944Z" transform="translate(0 0)"/></g></svg>