<svg xmlns="http://www.w3.org/2000/svg" width="35.225" height="36.05" viewBox="0 0 35.225 36.05"><defs><style>.a{fill:#fcfcfc;}</style></defs><path class="a" d="M755.214,1211.9a5.664,5.664,0,0,0-1.632,1.018,5.16,5.16,0,0,0-1.148,1.39,5.016,5.016,0,0,0-.307.76,3.078,3.078,0,0,0-.1.76v19.787a3.075,3.075,0,0,0,.1.76,4.419,4.419,0,0,0,.307.76,5.229,5.229,0,0,0,1.148,1.406,6.05,6.05,0,0,0,1.632,1.018,5.134,5.134,0,0,0,1.843.372.667.667,0,0,1,.307.081.753.753,0,0,1,.227.226.67.67,0,0,1,.081.307v4.09l7.533-4.607a.016.016,0,0,1,.016-.016.669.669,0,0,1,.307-.081h14.226a5.129,5.129,0,0,0,1.843-.372,6.407,6.407,0,0,0,1.649-1.018,5.173,5.173,0,0,0,1.132-1.406,2.771,2.771,0,0,0,.307-.76,2.464,2.464,0,0,0,.113-.76v-19.787a2.466,2.466,0,0,0-.113-.76,2.99,2.99,0,0,0-.307-.76,5.1,5.1,0,0,0-1.132-1.39,5.979,5.979,0,0,0-1.649-1.018,5.132,5.132,0,0,0-1.843-.372h-22.7A5.137,5.137,0,0,0,755.214,1211.9Zm26.851-1.132a7.127,7.127,0,0,1,1.988,1.213,6.5,6.5,0,0,1,1.406,1.746,5.464,5.464,0,0,1,.42,1.018,4.15,4.15,0,0,1,.146,1.083v19.787a4.148,4.148,0,0,1-.146,1.083,5.457,5.457,0,0,1-.42,1.018,6.5,6.5,0,0,1-1.406,1.746,7.184,7.184,0,0,1-1.988,1.229,6.35,6.35,0,0,1-2.312.469H765.706l-8.325,5.092a.016.016,0,0,1-.016.016.624.624,0,0,1-.614,0,.751.751,0,0,1-.226-.227.668.668,0,0,1-.081-.307v-4.607a6.267,6.267,0,0,1-1.7-.437,7.106,7.106,0,0,1-1.972-1.229,6.9,6.9,0,0,1-1.423-1.746,6.659,6.659,0,0,1-.4-1.018,4.172,4.172,0,0,1-.146-1.083v-19.787a4.174,4.174,0,0,1,.146-1.083,6.669,6.669,0,0,1,.4-1.018,6.891,6.891,0,0,1,1.423-1.746,7.285,7.285,0,0,1,1.972-1.213,6.029,6.029,0,0,1,2.312-.469h22.7A6.03,6.03,0,0,1,782.066,1210.769Zm-24.2,23.214a2.157,2.157,0,0,1-.5-.356,1.935,1.935,0,0,1-.453-.808,2.009,2.009,0,0,1-.032-.323v-8.083a2.014,2.014,0,0,1,.032-.323,1.735,1.735,0,0,1,.113-.307,1.979,1.979,0,0,1,.841-.841,1.731,1.731,0,0,1,.307-.113,2.012,2.012,0,0,1,.323-.032h4.058a2.008,2.008,0,0,1,.323.032,1.925,1.925,0,0,1,.808.453,2.166,2.166,0,0,1,.356.5,1.038,1.038,0,0,1,.1.291,1.242,1.242,0,0,1,.049.339v8.083a1.244,1.244,0,0,1-.049.34,1.032,1.032,0,0,1-.1.291,1.839,1.839,0,0,1-.857.857,1.027,1.027,0,0,1-.291.1,1.23,1.23,0,0,1-.34.049H758.5a1.23,1.23,0,0,1-.339-.049A1.028,1.028,0,0,1,757.866,1233.983Zm7.08-9.166a.665.665,0,0,1,.081-.307v-.016a2.133,2.133,0,0,1,.469-.533,3.673,3.673,0,0,1,.517-.356,7.069,7.069,0,0,0,.776-.4,13.873,13.873,0,0,0,1.407-1.552,6.374,6.374,0,0,0,.937-1.633v-.065c0-.291-.065-.679-.065-1a1.822,1.822,0,0,1,.048-.436v-.032a2.535,2.535,0,0,1,.13-.307,1.341,1.341,0,0,1,.194-.259,2.227,2.227,0,0,1,.5-.42,2.392,2.392,0,0,1,.647-.307,2.416,2.416,0,0,1,.76-.129,1.82,1.82,0,0,1,.517.065,1.761,1.761,0,0,1,.533.194,2.776,2.776,0,0,1,.485.323,2.559,2.559,0,0,1,.437.485c.016,0,.016.016.032.032a2.092,2.092,0,0,1,.145.323c.016.1.049.194.065.307.016.21.032.436.032.695a11.022,11.022,0,0,1-.275,2.425v0a8.434,8.434,0,0,0-.323,1.617c.065,0,.146.016.226.016.356.033.792.049,1.261.065.97.016,2.069.016,2.91.049a.06.06,0,0,0,.049.016,2.123,2.123,0,0,1,.743.243,1.882,1.882,0,0,1,.566.5,1.949,1.949,0,0,1,.323.63,2.115,2.115,0,0,1,.113.711,2.3,2.3,0,0,1-.194.921,1.875,1.875,0,0,1-.242.437.285.285,0,0,1-.064.081,2.87,2.87,0,0,1,.113.841,3.134,3.134,0,0,1-.049.55,2,2,0,0,1-.534,1.034l-.048.048a4.309,4.309,0,0,1,.032.453,3.118,3.118,0,0,1-.081.679,2.184,2.184,0,0,1-.259.663h0c-.049.1-.113.178-.162.275a1.961,1.961,0,0,1-.307.339,1.664,1.664,0,0,1-.453.275c-.032.016-.048.016-.064.032a3.837,3.837,0,0,1,.016.42,2.417,2.417,0,0,1-.065.6,1.511,1.511,0,0,1-.226.582,1.771,1.771,0,0,1-.469.517,2.045,2.045,0,0,1-.711.291.311.311,0,0,1-.129.016h-.016c-2.2-.049-3.961-.1-6.159-.146-.016,0-.032,0-.032-.016a2.456,2.456,0,0,1-1.018-.307,7.849,7.849,0,0,1-.922-.533,8.053,8.053,0,0,0-1.714-.937.767.767,0,0,1-.113-.048.605.605,0,0,1-.227-.226.519.519,0,0,1-.081-.307c-.016-2.49-.049-4.979-.065-7.469Z" transform="translate(-750.801 -1210.3)"/></svg>