<svg xmlns="http://www.w3.org/2000/svg" width="24" height="17.128" viewBox="0 0 24 17.128"><defs><style>.a{fill:#006e74;}</style></defs><g transform="translate(-38 -41.336)"><circle class="a" cx="0.581" cy="0.581" r="0.581" transform="translate(39.945 43.205)"/><circle class="a" cx="0.581" cy="0.581" r="0.581" transform="translate(41.739 43.205)"/><circle class="a" cx="0.581" cy="0.581" r="0.581" transform="translate(43.558 43.205)"/><path class="a" d="M42.5,55.155a.5.5,0,1,0,1.01,0V52.087H42.5Z"/><path class="a" d="M44.215,50.572h-.708V48.586a.5.5,0,0,0-1.01,0v1.986h-.708a.505.505,0,0,0,0,1.01h2.4a.507.507,0,0,0,.506-.505A.485.485,0,0,0,44.215,50.572Z"/><path class="a" d="M46.64,55.155a.506.506,0,0,0,1.011,0V53.169H46.64Z"/><path class="a" d="M48.333,51.628h-.708V48.561a.5.5,0,1,0-1.01,0v3.067h-.708a.506.506,0,0,0,0,1.011h2.4a.507.507,0,0,0,.506-.505A.471.471,0,0,0,48.333,51.628Z"/><path class="a" d="M62,46.439a.975.975,0,0,0-.278-.682l-1.49-1.491a.93.93,0,0,0-1.339,0l-.758.758v-2.4a1.294,1.294,0,0,0-1.289-1.288H39.288A1.294,1.294,0,0,0,38,42.624V57.176a1.294,1.294,0,0,0,1.288,1.288H56.821a1.294,1.294,0,0,0,1.288-1.288V50.708L61.7,47.121A.9.9,0,0,0,62,46.439Zm-8.994,7.983-1.844.5.43-1.894.581-.581,1.414,1.414Zm1.289-1.314L52.88,51.694l4.977-5.028,1.44,1.44ZM39.54,42.649l17.306-.025a.307.307,0,0,1,.3.3l.025,2.274-17.886.025-.025-2.274A.3.3,0,0,1,39.54,42.649ZM57.124,57.2c0,.152-.05-.053-.227-.053l-17.306.025a.307.307,0,0,1-.3-.3l-.026-10.633,17.685-.025L50.834,52.3a1.008,1.008,0,0,0-.253.455l-.429,1.92a.942.942,0,0,0,.252.884.977.977,0,0,0,.682.278.5.5,0,0,0,.2-.025l1.92-.43a1,1,0,0,0,.455-.253l3.461-3.435.026,5.151ZM60,47.4l-1.44-1.44.96-.96,1.491,1.415Z"/></g></svg>