<svg xmlns="http://www.w3.org/2000/svg" width="23.279" height="21.57" viewBox="0 0 23.279 21.57"><defs><style>.a{fill:#006e74;}</style></defs><g transform="translate(-9 -12)"><path class="a" d="M9.567,23.353h2.838V33a.568.568,0,0,0,.568.568h5.393A.568.568,0,0,0,18.933,33v-5.96h3.406V33a.568.568,0,0,0,.568.568H28.3A.568.568,0,0,0,28.867,33v-9.65h2.844a.568.568,0,0,0,.333-1.027L21.021,12.15a.568.568,0,0,0-.77,0L9.182,22.368a.568.568,0,0,0,.385.985ZM20.636,13.34l9.617,8.877H28.3a.568.568,0,0,0-.568.568v9.65H23.474v-5.96a.568.568,0,0,0-.568-.568H18.366a.568.568,0,0,0-.568.568v5.96H13.541v-9.65a.568.568,0,0,0-.568-.568H11.019Z"/></g></svg>