<svg xmlns="http://www.w3.org/2000/svg" width="26.7" height="28" viewBox="0 0 26.7 28"><defs><style>.a{fill:#006e74;}</style></defs><g transform="translate(-294.823 -22.915)"><path class="a" d="M320.92,36.96a.609.609,0,0,0-.6.6,12.156,12.156,0,1,1-13-12.142l-.518.4a.59.59,0,0,0,.345,1.064.5.5,0,0,0,.345-.115l1.957-1.5a.614.614,0,0,0,.23-.489.543.543,0,0,0-.259-.46l-1.957-1.3a.543.543,0,0,0-.805.144.572.572,0,0,0,.173.806l.4.259a13.353,13.353,0,1,0,14.3,13.321A.607.607,0,0,0,320.92,36.96Z" transform="translate(0 0)"/><circle class="a" cx="0.771" cy="0.771" r="0.771" transform="translate(319.643 33.695)"/><circle class="a" cx="0.771" cy="0.771" r="0.771" transform="translate(318.626 31.03)"/><circle class="a" cx="0.771" cy="0.771" r="0.771" transform="translate(316.776 28.536)"/><circle class="a" cx="0.771" cy="0.771" r="0.771" transform="translate(314.624 26.649)"/><circle class="a" cx="0.771" cy="0.771" r="0.771" transform="translate(311.787 25.015)"/><path class="a" d="M318.16,45.516,316.9,44.252a3.436,3.436,0,0,0,.616-2A3.514,3.514,0,1,0,314,45.763a3.72,3.72,0,0,0,2.219-.771l1.234,1.233a.51.51,0,0,0,.37.154.568.568,0,0,0,.369-.154A.494.494,0,0,0,318.16,45.516ZM311.5,42.279a2.528,2.528,0,1,1,2.528,2.528A2.58,2.58,0,0,1,311.5,42.279Z" transform="translate(-1.439 -1.416)"/><path class="a" d="M303.7,44.992h-3.113a.486.486,0,0,1-.493-.493v-8.17a.486.486,0,0,1,.493-.493H303.7a.487.487,0,0,1,.494.493V44.5A.487.487,0,0,1,303.7,44.992Zm-2.62-.956h2.158V36.822h-2.158Z" transform="translate(-0.41 -1.24)"/><path class="a" d="M308.634,44.992h-3.145A.487.487,0,0,1,305,44.5V29.547a.487.487,0,0,1,.493-.493H308.6a.487.487,0,0,1,.493.493V44.5A.462.462,0,0,1,308.634,44.992Zm-2.651-.956h2.158v-14h-2.158Z" transform="translate(-0.792 -0.873)"/><path class="a" d="M310.36,39.227a.487.487,0,0,1-.493-.493V34.11a.487.487,0,0,1,.493-.494h3.083a.487.487,0,0,1,.493.494V37.1a.493.493,0,1,1-.986,0V34.6h-2.127v4.131A.481.481,0,0,1,310.36,39.227Z" transform="translate(-1.169 -0.878)"/></g></svg>