<svg xmlns="http://www.w3.org/2000/svg" width="20.289" height="24.948" viewBox="0 0 20.289 24.948"><defs><style>.a{fill:#fc6a59;}</style></defs><path class="a" d="M2937.175,546.893V534.531a.924.924,0,1,0-1.847,0h0v12.354a.924.924,0,1,0,1.847,0Zm4.654,0V534.531a.924.924,0,1,0-1.847,0h0v12.354a.924.924,0,1,0,1.847,0Zm3.664-13.3a.929.929,0,0,0-.923.935h0v14.664a1.167,1.167,0,0,1-.924.935h-10.413c-.308,0-.68-.508-.68-.935V534.531a.924.924,0,1,0-1.847,0h0v14.664a2.759,2.759,0,0,0,2.53,2.8h10.411a2.98,2.98,0,0,0,2.77-2.8V534.531a.929.929,0,0,0-.924-.935Zm2.463-2.8h-4.925v-2.8a.929.929,0,0,0-.923-.935h-7.388a.929.929,0,0,0-.923.935h0v2.8h-4.281a.935.935,0,0,0,0,1.87h18.444a.935.935,0,0,0,0-1.87Zm-6.772,0h-5.541v-1.87h5.541Z" transform="translate(-2928.592 -527.051)"/></svg>