<svg xmlns="http://www.w3.org/2000/svg" width="34.323" height="34.352" viewBox="0 0 34.323 34.352"><defs><style>.a{fill:#006e74;}</style></defs><g transform="translate(-5 -4.923)"><path class="a" d="M38.217,4.953,33.6,5.792a1.2,1.2,0,0,0-.343-.648.818.818,0,0,0-.763-.191l-8.39,1.525L22.848,5.22a.951.951,0,0,0-.877-.267L5.763,8.766A.976.976,0,0,0,5,9.72V34.509a1.012,1.012,0,0,0,.8.953l20.975,3.814h.153a.935.935,0,0,0,.61-.229.987.987,0,0,0,.343-.648l4.615.877h.153a.935.935,0,0,0,.61-.229A.987.987,0,0,0,33.6,38.4l4.615.877h.153a.969.969,0,0,0,.953-.953V5.906a.939.939,0,0,0-.343-.725A.961.961,0,0,0,38.217,4.953ZM22.162,7.241l3.432,3.432H22.162Zm3.814,29.937L6.907,33.708V10.482L20.255,7.355v4.309a.944.944,0,0,0,.953.953h4.767Zm5.721,0-3.814-.686V10.673a1.1,1.1,0,0,0-.267-.686L25.746,8.118,31.7,7.05Zm5.721,0L33.6,36.492V7.737l3.814-.686Z" transform="translate(0 0)"/><path class="a" d="M29.3,40H15.953a.953.953,0,0,0,0,1.907H29.3A.953.953,0,0,0,29.3,40Z" transform="translate(-6.186 -21.7)"/><path class="a" d="M15,30.183a.962.962,0,0,0,.953.915h.038l13.348-.5a.922.922,0,0,0,.915-.992.944.944,0,0,0-.992-.915l-13.348.5A.97.97,0,0,0,15,30.183Z" transform="translate(-6.186 -14.705)"/><path class="a" d="M29.335,50.492,15.988,50a.954.954,0,1,0-.076,1.907l13.348.5H29.3a.99.99,0,0,0,.953-.915A.946.946,0,0,0,29.335,50.492Z" transform="translate(-6.182 -27.882)"/><path class="a" d="M29.373,60.949,16.025,60a.956.956,0,0,0-.153,1.907l13.348.953H29.3a.955.955,0,0,0,.076-1.907Z" transform="translate(-6.182 -34.068)"/><path class="a" d="M29.4,71.445,16.052,70a.977.977,0,0,0-1.068.839.949.949,0,0,0,.839,1.068l13.348,1.449h.114a.983.983,0,0,0,.953-.839A.959.959,0,0,0,29.4,71.445Z" transform="translate(-6.171 -40.254)"/></g></svg>