<svg xmlns="http://www.w3.org/2000/svg" width="24.401" height="24.367" viewBox="0 0 24.401 24.367"><defs><style>.a{fill:#006e74;}</style></defs><path class="a" d="M2883.614,538.528v12.781a.567.567,0,0,1-.568.567h-19.479a.568.568,0,0,1-.568-.567V531.781a.567.567,0,0,1,.568-.565h12.715c.313.016.534.432.517.745-.015.29-.226.756-.517.771h-11.76v17.628h17.573v-11.83c0-.312.475-.548.788-.548S2883.614,538.216,2883.614,538.528Zm2.8-5.063-9.976,9.955c-.055.053-7.165,2.913-7.165,2.913a.566.566,0,0,1-.738-.736s2.864-7.1,2.919-7.149l9.121-9.1h0l.855-.854a3.52,3.52,0,0,1,4.983,4.972Zm-16.333,11.325,1.894-.762-1.135-1.133Zm4.944-1.982-2.963-2.959-.993,2.472,1.479,1.476Zm8.344-7.912-3.379-3.367-7.333,7.316,3.379,3.37Zm.985-.983-3.374-3.367-.585.584,3.377,3.37Zm1.258-4.625a2.393,2.393,0,0,0-3.377,0l-.459.457,3.381,3.372.458-.457a2.383,2.383,0,0,0,0-3.369Z" transform="translate(-2862.998 -527.51)"/></svg>