<svg xmlns="http://www.w3.org/2000/svg" width="32.275" height="17.2" viewBox="0 0 32.275 17.2"><defs><style>.a{fill:#006e74;}</style></defs><path class="a" d="M2730.47,490.939l-.47-.572.47-.573c.337-.306,7.128-8.026,15.667-8.026,8.606,0,15.393,7.72,15.667,8.026l.471.574-.471.573c-.337.306-7.128,8.026-15.667,8.026C2737.531,498.967,2730.744,491.243,2730.47,490.939Zm1.917-.58c1.709,1.79,7.261,6.848,13.75,6.848s12.041-5.087,13.75-6.839c-1.709-1.789-7.329-6.848-13.75-6.848S2734.1,488.615,2732.387,490.36Zm7.9.008a5.861,5.861,0,0,1,5.851-5.869h.032a5.869,5.869,0,1,1-5.883,5.869Zm1.755.005a4.1,4.1,0,1,0,4.1-4.109A4.1,4.1,0,0,0,2742.043,490.373Zm2.078-.006a2.017,2.017,0,1,1,2.017,2.023A2.02,2.02,0,0,1,2744.121,490.367Z" transform="translate(-2730.001 -481.767)"/></svg>