<svg xmlns="http://www.w3.org/2000/svg" width="32" height="32" viewBox="0 0 32 32"><defs><style>.a{fill:#006e74;}</style></defs><g transform="translate(-637.681 -324)"><path class="a" d="M668.7,356H638.66a.979.979,0,0,1-.979-.979V324.979a.979.979,0,0,1,.979-.979H668.7a.979.979,0,0,1,.979.979v30.043A.979.979,0,0,1,668.7,356Zm-29.064-1.957h28.085V325.957H639.638Z" transform="translate(0)"/><g transform="translate(642.243 331.141)"><path class="a" d="M649.513,337.592a.728.728,0,0,0-.717.731v.62h-.609a.728.728,0,0,0-.717.731v.62h-.617a.735.735,0,0,0-.717.739v2.107a.278.278,0,0,0,0,.161v10.771a.728.728,0,0,0,.717.731h18.6a.728.728,0,0,0,.717-.731v-.62h.609a.728.728,0,0,0,.717-.731v-.62h.617a.72.72,0,0,0,.709-.731v-10.8a.276.276,0,0,0,0-.1v-2.149a.72.72,0,0,0-.709-.731Zm0,.544h18.6a.172.172,0,0,1,.175.187v1.929h-.792v-.578a.728.728,0,0,0-.717-.731H649.33v-.62A.179.179,0,0,1,649.513,338.136Zm-1.326,1.351h18.589a.179.179,0,0,1,.184.187V341.6h-.792v-.569a.735.735,0,0,0-.717-.739H648v-.62A.179.179,0,0,1,648.187,339.487Zm19.306,1.308h.792V351.37a.172.172,0,0,1-.175.187h-.617v-9.633a.276.276,0,0,0,0-.1Zm-20.64.042h5.754a.573.573,0,0,1,.408.289l.692,1.826h-7.039v-1.92A.186.186,0,0,1,646.853,340.837Zm6.613,0H665.45a.186.186,0,0,1,.183.2v1.92H654.283l-.768-2.022A.983.983,0,0,0,653.466,340.837Zm-5.554.349a.713.713,0,0,0-.709.713.709.709,0,1,0,1.418,0A.712.712,0,0,0,647.912,341.185Zm1.809,0a.712.712,0,0,0-.709.713.709.709,0,1,0,1.417,0A.712.712,0,0,0,649.722,341.185Zm1.81,0a.712.712,0,0,0-.709.713.709.709,0,1,0,1.417,0A.712.712,0,0,0,651.531,341.185Zm-3.619.544a.166.166,0,0,1,.175.17.176.176,0,1,1-.351,0A.166.166,0,0,1,647.912,341.729Zm1.809,0a.166.166,0,0,1,.175.17.175.175,0,1,1-.35,0A.166.166,0,0,1,649.722,341.729Zm1.81,0a.159.159,0,0,1,.167.17.173.173,0,0,1-.167.187.18.18,0,0,1-.175-.187A.166.166,0,0,1,651.531,341.729Zm14.636.416h.792v10.576a.178.178,0,0,1-.184.186h-.609v-9.633a.293.293,0,0,0,0-.1Zm-19.5,1.351h18.964v10.576a.178.178,0,0,1-.183.187h-18.6a.179.179,0,0,1-.183-.187Z" transform="translate(-646.124 -337.592)"/></g></g></svg>