<svg xmlns="http://www.w3.org/2000/svg" width="32" height="32" viewBox="0 0 32 32"><defs><style>.a{fill:#006e74;}</style></defs><g transform="translate(-388.46 -255.915)"><path class="a" d="M419.481,287.915H389.439a.979.979,0,0,1-.979-.979V256.894a.979.979,0,0,1,.979-.979h30.043a.979.979,0,0,1,.979.979v30.043A.979.979,0,0,1,419.481,287.915Zm-29.064-1.957H418.5V257.872H390.417Z" transform="translate(0 0)"/><g transform="translate(393.762 262.4)"><path class="a" d="M398.458,283.243V269.071l.116-.208a1.437,1.437,0,0,1,.668-.631,1.239,1.239,0,0,1,.343-.082c.125-.016.252-.012.38-.017h18.95c.039.026.079.051.119.073a1.564,1.564,0,0,1,.755.754c.019.039.043.074.065.112v14.171a1.689,1.689,0,0,1-.885.907.413.413,0,0,1-.156.037q-.933.01-1.866.012l-4.955.012c-.144,0-.145,0-.145.141v2.358c0,.159,0,.159.162.159h2.379c.11,0,.144.034.143.143-.006.4,0,.808,0,1.211h-10.74v-1.2c0-.151,0-.152.151-.152h2.39c.107,0,.144-.026.143-.14-.005-.786,0-1.571,0-2.358,0-.163,0-.163-.167-.163l-6.789-.022a.3.3,0,0,1-.117-.016,1.618,1.618,0,0,1-.8-.68C398.548,283.406,398.5,283.323,398.458,283.243Zm10.7-13.771h-9.214c-.154,0-.155,0-.155.155v13.066c0,.155,0,.155.157.155h18.418c.16,0,.16,0,.16-.163V269.63c0-.159,0-.159-.162-.159Zm1.326,16.063v-1.21c0-.091-.028-.117-.118-.117q-1.211,0-2.421,0c-.1,0-.121.035-.12.129q0,1.205,0,2.41c0,.1.028.125.124.125q1.205,0,2.41,0c.093,0,.13-.025.126-.123,0-.41,0-.813,0-1.217Z" transform="translate(-398.458 -268.133)"/><path class="a" d="M411.48,283.832h-6.9a.687.687,0,0,1-.312-.075,1.639,1.639,0,0,1-.794-.85.379.379,0,0,1-.025-.148v-8.546a.38.38,0,0,1,.05-.194,3.313,3.313,0,0,1,.352-.507,1.134,1.134,0,0,1,.866-.368c1.237,0,2.474-.006,3.711-.006q4.977,0,9.953.006a.718.718,0,0,1,.279.065,1.587,1.587,0,0,1,.816.856.379.379,0,0,1,.026.148v8.545a.532.532,0,0,1-.053.206,1.555,1.555,0,0,1-.794.8.622.622,0,0,1-.248.059Q414.945,283.834,411.48,283.832Zm0-9.352h-6.529c-.165,0-.165,0-.165.161v7.7c0,.162,0,.164.165.164h13.056c.163,0,.165,0,.165-.164v-7.7c0-.16,0-.16-.165-.16Z" transform="translate(-400.781 -270.461)"/><path class="a" d="M419.7,278.118h3.883c.148,0,.149,0,.149.148,0,.356,0,.712,0,1.07,0,.111-.032.143-.141.142-.789,0-1.578,0-2.368,0-.177,0-.177,0-.177.18,0,.117.005.233,0,.349-.006.1.027.126.124.125.706,0,1.411,0,2.117,0,.113,0,.226,0,.339,0,.08,0,.109.022.107.1-.005.189,0,.379,0,.568v2.553c0,.143,0,.144-.145.144h-3.754c-.11,0-.145-.034-.143-.143,0-.359,0-.719,0-1.08,0-.043.006-.086.011-.139h2.539c.1,0,.136-.025.129-.129a3.184,3.184,0,0,1,0-.4c.008-.113-.05-.122-.138-.122h-2.346c-.195,0-.195,0-.195-.195V278.3C419.691,278.245,419.7,278.188,419.7,278.118Z" transform="translate(-408.334 -272.778)"/><path class="a" d="M412.461,280.8v2.543c0,.147,0,.148-.143.148h-3.753c-.147,0-.148,0-.148-.144v-5.095c0-.109.029-.141.141-.141,1.255,0,2.51,0,3.764,0,.141,0,.141,0,.141.145Q412.461,279.534,412.461,280.8Zm-2.683,0v1.222c0,.086.026.113.112.111q.55-.006,1.1,0c.087,0,.111-.027.111-.112q0-1.215,0-2.431c0-.089-.027-.121-.117-.121q-.545,0-1.089,0c-.091,0-.118.032-.117.121,0,.4,0,.805,0,1.21Z" transform="translate(-403.09 -272.776)"/></g></g></svg>