<svg xmlns="http://www.w3.org/2000/svg" width="32" height="32" viewBox="0 0 32 32"><defs><style>.a{fill:#006e74;}</style></defs><g transform="translate(-1269.5 -766.666)"><g transform="translate(720.005 510.751)"><path class="a" d="M580.516,287.915H550.474a.979.979,0,0,1-.979-.979V256.894a.979.979,0,0,1,.979-.979h30.043a.979.979,0,0,1,.979.979v30.043A.979.979,0,0,1,580.516,287.915Zm-29.064-1.957h28.085V257.872H551.452Z" transform="translate(0 0)"/><path class="a" d="M580.313,283.729h-.835V272.449a1.9,1.9,0,0,0-1.95-1.95H562.195a1.924,1.924,0,0,0-1.936,1.95v11.281h-.835a.557.557,0,0,0-.557.557,2.572,2.572,0,0,0,2.645,2.646s6.809.01,11.761.01c2.878,0,4.547,0,4.961-.011a2.573,2.573,0,0,0,2.637-2.646A.557.557,0,0,0,580.313,283.729Zm-18.94-11.281a.811.811,0,0,1,.836-.836h15.319a.78.78,0,0,1,.836.836v11.281h-6.406a.558.558,0,0,0-.394.163l-.533.533h-2.324l-.533-.533a.558.558,0,0,0-.394-.163h-6.406Zm16.842,13.37c-.408.006-2.07.01-4.942.01-4.95,0-11.757-.01-11.757-.01a1.5,1.5,0,0,1-1.458-.975h7.491l.533.533a.557.557,0,0,0,.394.163h2.785a.557.557,0,0,0,.394-.163l.533-.533h7.471A1.4,1.4,0,0,1,578.215,285.818Z" transform="translate(-4.373 -6.806)"/><path class="a" d="M580.348,284.026v-9.053a.557.557,0,0,0-.557-.557H567.257a.557.557,0,0,0-.557.557v9.053a.557.557,0,0,0,.557.557h12.534A.557.557,0,0,0,580.348,284.026Zm-12.534-8.5h11.42V277.2h-11.42Zm11.42,7.938h-11.42v-5.153h11.42Z" transform="translate(-8.029 -8.634)"/><path class="a" d="M569.882,277.027h0a.557.557,0,1,0,.56.557A.556.556,0,0,0,569.88,277.027Z" transform="translate(-9.254 -9.852)"/><path class="a" d="M575.105,277.027h0a.557.557,0,1,0,.559.557A.556.556,0,0,0,575.1,277.027Z" transform="translate(-11.691 -9.852)"/><path class="a" d="M572.493,277.027h0a.557.557,0,1,0,.56.557A.556.556,0,0,0,572.491,277.027Z" transform="translate(-10.472 -9.852)"/></g></g></svg>