<svg xmlns="http://www.w3.org/2000/svg" width="32" height="32" viewBox="0 0 32 32"><defs><style>.a,.b{fill:#006e74;}.b{fill-rule:evenodd;}</style></defs><g transform="translate(-1115 -658.666)"><g transform="translate(624.668 443.403)"><path class="a" d="M521.353,247.263H491.311a.979.979,0,0,1-.979-.979V216.242a.979.979,0,0,1,.979-.979h30.043a.979.979,0,0,1,.979.979v30.043A.979.979,0,0,1,521.353,247.263Zm-29.064-1.957h28.085V217.22H492.289Z"/><g transform="translate(494.716 219.632)"><path class="b" d="M507.981,231.869A9.587,9.587,0,0,0,508,251.043l3.86,0a1.4,1.4,0,0,0,1.52-1.351,1.351,1.351,0,0,0-1.335-1.352c-.8,0-1.632-.037-2.455-.111A2.752,2.752,0,0,1,507,245.557a2.69,2.69,0,0,1,2.6-2.618c.279-.021.3-.049.831-.085.376-.025,1.426-.587,1.426-1.376a1.455,1.455,0,0,0-1.427-1.43,7.048,7.048,0,0,1-.882-.074A2.806,2.806,0,0,1,507,237.349a2.554,2.554,0,0,1,2.549-2.549l.879-.053a1.439,1.439,0,0,0,.005-2.878h-2.453Z" transform="translate(-498.422 -227.75)"/><path class="b" d="M520.034,243.444a9.587,9.587,0,0,0-.021-19.174l-3.861,0a1.4,1.4,0,0,0-1.52,1.351,1.351,1.351,0,0,0,1.335,1.352c.8,0,1.631.037,2.455.111a2.751,2.751,0,0,1,2.593,2.675,2.69,2.69,0,0,1-2.6,2.618c-.28.021-.3.048-.831.085-.376.025-1.427.586-1.427,1.376a1.456,1.456,0,0,0,1.427,1.431,7.063,7.063,0,0,1,.882.074,2.8,2.8,0,0,1,2.549,2.624,2.554,2.554,0,0,1-2.549,2.549l-.879.053a1.439,1.439,0,0,0-.005,2.878h2.452Z" transform="translate(-506.359 -224.268)"/></g></g></g></svg>