<svg xmlns="http://www.w3.org/2000/svg" width="32" height="32" viewBox="0 0 32 32"><defs><style>.a{fill:#006e74;}</style></defs><g transform="translate(-234.328 -259.453)"><path class="a" d="M265.349,291.453H235.307a.979.979,0,0,1-.979-.979V260.432a.979.979,0,0,1,.979-.979h30.042a.979.979,0,0,1,.979.979v30.043A.979.979,0,0,1,265.349,291.453ZM236.286,289.5h28.085V261.41H236.286Z"/><g transform="translate(240.469 264.327)"><path class="a" d="M265.728,284.684h-1.694v-2.811a.343.343,0,0,0-.343-.343h-5.364a2.183,2.183,0,0,0-1.813-1.812v-.772H261.7a3.223,3.223,0,1,0,0-6.445,3.164,3.164,0,0,0-1.05.177,2.533,2.533,0,0,0-2.589-.666,4.511,4.511,0,0,0-8.675.751,3.221,3.221,0,0,0,1.265,6.183h5.181v.773a2.189,2.189,0,0,0-1.806,1.81h-5.364a.343.343,0,0,0-.343.343v2.811h-1.7a.343.343,0,0,0-.343.343v5.639a.343.343,0,0,0,.343.343h4.075a.343.343,0,0,0,.343-.343v-5.639a.343.343,0,0,0-.343-.343H249v-2.468h5.02a2.19,2.19,0,0,0,1.806,1.808v.66h-1.692a.343.343,0,0,0-.343.343v5.639a.343.343,0,0,0,.343.343h4.075a.343.343,0,0,0,.343-.343v-5.639a.343.343,0,0,0-.343-.343h-1.7v-.657a2.183,2.183,0,0,0,1.812-1.811h5.021v2.468h-1.694a.343.343,0,0,0-.343.343v5.639a.343.343,0,0,0,.343.343h4.075a.343.343,0,0,0,.343-.343v-5.639A.343.343,0,0,0,265.728,284.684Zm-17.617-8.961a2.528,2.528,0,0,1,1.693-2.388.341.341,0,0,0,.228-.279,3.825,3.825,0,0,1,7.481-.5.34.34,0,0,0,.193.224.345.345,0,0,0,.3-.009,1.773,1.773,0,0,1,.815-.193,1.827,1.827,0,0,1,1.457.714.343.343,0,0,0,.411.1,2.469,2.469,0,0,1,1.011-.213,2.536,2.536,0,1,1,0,5.073H250.647A2.539,2.539,0,0,1,248.111,275.723Zm2.241,14.6h-3.389V285.37h3.389Zm7.517,0h-3.389V285.37h3.389Zm-1.693-6.953h-.007a1.5,1.5,0,0,1-1.49-1.494v0a1.5,1.5,0,1,1,1.5,1.5Zm9.21,6.953H262V285.37h3.389Z" transform="translate(-246.276 -269.054)"/></g></g></svg>