<svg xmlns="http://www.w3.org/2000/svg" width="32" height="32" viewBox="0 0 32 32"><defs><style>.a{fill:#006e74;}</style></defs><g transform="translate(-1269 -658.666)"><g transform="translate(1034.672 274.666)"><path class="a" d="M265.349,416H235.307a.979.979,0,0,1-.979-.979V384.979a.979.979,0,0,1,.979-.979h30.042a.979.979,0,0,1,.979.979v30.043A.979.979,0,0,1,265.349,416Zm-29.063-1.957h28.085V385.957H236.286Z"/><path class="a" d="M247.474,396.54a3.333,3.333,0,0,0-.96.592,3.031,3.031,0,0,0-.675.811,2.914,2.914,0,0,0-.18.443,1.784,1.784,0,0,0-.057.443v11.548a1.785,1.785,0,0,0,.057.443,2.555,2.555,0,0,0,.18.444,3.061,3.061,0,0,0,.675.821,3.564,3.564,0,0,0,.96.592,3.04,3.04,0,0,0,1.084.217.391.391,0,0,1,.18.047.435.435,0,0,1,.134.131.391.391,0,0,1,.047.179v2.387l4.43-2.688a.009.009,0,0,1,.009-.009h0a.392.392,0,0,1,.18-.047H261.9a3.039,3.039,0,0,0,1.083-.217,3.768,3.768,0,0,0,.971-.592,3.02,3.02,0,0,0,.665-.821,1.6,1.6,0,0,0,.181-.444,1.443,1.443,0,0,0,.065-.443V398.829a1.439,1.439,0,0,0-.065-.443,1.733,1.733,0,0,0-.181-.443,2.982,2.982,0,0,0-.665-.811,3.514,3.514,0,0,0-.971-.592,3.038,3.038,0,0,0-1.083-.217H248.558A3.039,3.039,0,0,0,247.474,396.54Zm15.789-.657a4.18,4.18,0,0,1,1.169.708,3.8,3.8,0,0,1,.827,1.019,3.2,3.2,0,0,1,.247.592,2.419,2.419,0,0,1,.085.632v11.548a2.423,2.423,0,0,1-.085.632,3.2,3.2,0,0,1-.247.592,3.8,3.8,0,0,1-.827,1.019,4.228,4.228,0,0,1-1.169.717,3.751,3.751,0,0,1-1.359.274h-8.261l-4.9,2.972a.009.009,0,0,1-.009.009h0a.369.369,0,0,1-.361,0,.439.439,0,0,1-.133-.131.384.384,0,0,1-.048-.179V413.6a3.7,3.7,0,0,1-1-.254,4.178,4.178,0,0,1-1.16-.718,4.029,4.029,0,0,1-.836-1.019,3.934,3.934,0,0,1-.238-.592,2.417,2.417,0,0,1-.085-.631V398.834a2.414,2.414,0,0,1,.085-.631,3.934,3.934,0,0,1,.238-.592,4.028,4.028,0,0,1,.836-1.019,4.285,4.285,0,0,1,1.16-.708,3.571,3.571,0,0,1,1.359-.273H261.9a3.559,3.559,0,0,1,1.359.27Zm-14.23,13.548a1.271,1.271,0,0,1-.3-.207,1.01,1.01,0,0,1-.2-.293,1.021,1.021,0,0,1-.065-.18,1.174,1.174,0,0,1-.019-.189v-4.717a1.186,1.186,0,0,1,.019-.189,1.013,1.013,0,0,1,.065-.179,1.166,1.166,0,0,1,.495-.491,1.015,1.015,0,0,1,.18-.066,1.254,1.254,0,0,1,.19-.018h2.386a1.254,1.254,0,0,1,.19.018,1.137,1.137,0,0,1,.475.263,1.277,1.277,0,0,1,.209.293.593.593,0,0,1,.057.169.733.733,0,0,1,.029.2v4.715a.729.729,0,0,1-.029.2.581.581,0,0,1-.057.17,1.036,1.036,0,0,1-.209.293,1.05,1.05,0,0,1-.295.208.6.6,0,0,1-.171.057.731.731,0,0,1-.2.028H249.4a.737.737,0,0,1-.2-.028.586.586,0,0,1-.172-.054Zm4.163-5.349a.387.387,0,0,1,.048-.179v-.009a1.26,1.26,0,0,1,.276-.311,2.14,2.14,0,0,1,.3-.208,4.173,4.173,0,0,0,.453-.235,8.1,8.1,0,0,0,.827-.906,3.724,3.724,0,0,0,.551-.953v-.037c0-.17-.038-.395-.038-.585a1.085,1.085,0,0,1,.029-.255v-.019a1.532,1.532,0,0,1,.076-.179.77.77,0,0,1,.114-.151,1.319,1.319,0,0,1,.294-.245,1.414,1.414,0,0,1,.38-.179,1.434,1.434,0,0,1,.447-.075,1.073,1.073,0,0,1,.3.037,1.058,1.058,0,0,1,.314.114,1.625,1.625,0,0,1,.285.189,1.467,1.467,0,0,1,.259.283c.01,0,.01.009.019.019a1.277,1.277,0,0,1,.085.189c.01.057.028.113.038.179.01.122.019.255.019.406a6.389,6.389,0,0,1-.162,1.416h0a4.887,4.887,0,0,0-.19.943c.038,0,.085.009.134.009.209.019.465.028.741.038.57.01,1.217.01,1.711.028a.037.037,0,0,0,.029.009,1.261,1.261,0,0,1,.437.142,1.1,1.1,0,0,1,.333.293,1.136,1.136,0,0,1,.19.367,1.237,1.237,0,0,1,.065.415,1.34,1.34,0,0,1-.114.538,1.091,1.091,0,0,1-.142.254.171.171,0,0,1-.038.047,1.685,1.685,0,0,1,.065.49,1.806,1.806,0,0,1-.029.321,1.106,1.106,0,0,1-.1.311,1.094,1.094,0,0,1-.21.293l-.028.029a2.56,2.56,0,0,1,.019.263,1.791,1.791,0,0,1-.047.394,1.266,1.266,0,0,1-.152.387h0c-.028.057-.065.1-.095.161a1.172,1.172,0,0,1-.181.2.986.986,0,0,1-.266.161c-.019.009-.029.009-.038.019a2.362,2.362,0,0,1,.01.245,1.38,1.38,0,0,1-.038.349.881.881,0,0,1-.133.34,1.034,1.034,0,0,1-.276.3,1.2,1.2,0,0,1-.418.17.18.18,0,0,1-.075.01h-.01c-1.294-.029-2.33-.057-3.625-.085-.01,0-.019,0-.019-.01a1.458,1.458,0,0,1-.6-.179,4.6,4.6,0,0,1-.542-.312,4.769,4.769,0,0,0-1.008-.547.406.406,0,0,1-.065-.029.355.355,0,0,1-.134-.131.3.3,0,0,1-.047-.179c-.01-1.453-.028-2.906-.038-4.359Z" transform="translate(-4.866 -5.536)"/></g></g></svg>