<svg xmlns="http://www.w3.org/2000/svg" width="32" height="32" viewBox="0 0 32 32"><defs><style>.a{fill:#006e74;}</style></defs><g transform="translate(-3007.109 -2112.176)"><path class="a" d="M3076.41,2182.565h-13.449a1.084,1.084,0,0,1-1.084-1.084v-7.765h-7.76a1.084,1.084,0,0,1-1.083-1.084v-13.448a1.084,1.084,0,0,1,1.083-1.084h13.45a1.084,1.084,0,0,1,1.083,1.084v7.76h7.76a1.084,1.084,0,0,1,1.084,1.083v13.454A1.084,1.084,0,0,1,3076.41,2182.565Zm-9.928-11.017v-11.281H3055.2v11.281Zm-2.437,8.848h11.282v-11.286h-6.677v3.521a1.083,1.083,0,0,1-1.083,1.084h-3.521Z" transform="translate(-42.155 -42.155)"/><path class="a" d="M3038.13,2144.176h-30.043a.978.978,0,0,1-.978-.979v-30.042a.979.979,0,0,1,.978-.979h30.043a.979.979,0,0,1,.979.979V2143.2A.979.979,0,0,1,3038.13,2144.176Zm-29.064-1.957h28.085v-28.085h-28.085Z" transform="translate(0 0)"/></g></svg>