<svg xmlns="http://www.w3.org/2000/svg" width="32" height="32" viewBox="0 0 32 32"><defs><style>.a{fill:#006e74;}</style></defs><g transform="translate(-370.193 -307.258)"><path class="a" d="M401.214,339.258H371.172a.979.979,0,0,1-.979-.979V308.237a.979.979,0,0,1,.979-.979h30.043a.979.979,0,0,1,.979.979v30.043A.979.979,0,0,1,401.214,339.258ZM372.15,337.3h28.085V309.215H372.15Z" transform="translate(0 0)"/><path class="a" d="M390.263,339.565c-2.5,0-4.251-1.169-5.943-2.3a13.19,13.19,0,0,0-4.754-2.284l-.737-.155V329.1l.978.053c2.1.114,3.813,1.276,5.471,2.4,1.638,1.11,3.184,2.159,4.987,2.161h.006c1.842,0,3.427-1.014,5.106-2.089a17.286,17.286,0,0,1,4.467-2.27v-2.191a13.051,13.051,0,0,0-4.023,2.091c-1.693,1.137-3.443,2.312-5.554,2.321h-.029c-2.3,0-4-1.146-5.642-2.255A12.159,12.159,0,0,0,379.61,327l-.781-.124v-5.745l.961.035c2.3.084,4.036,1.3,5.718,2.472,1.541,1.075,3,2.091,4.737,2.091h.015c1.6-.005,3.1-.977,4.689-2.006a15.792,15.792,0,0,1,4.894-2.4v-2.212a9.68,9.68,0,0,0-4.286,2.194c-1.5,1.124-3.057,2.285-5.276,2.285h-.021c-2.171-.007-3.762-1.116-5.3-2.188-1.675-1.168-3.407-2.375-6.1-2.375v-1.854c3.279,0,5.343,1.439,7.165,2.708,1.423.993,2.653,1.85,4.246,1.855h.014c1.6,0,2.792-.888,4.167-1.916,1.625-1.214,3.465-2.59,6.3-2.647l.946-.019v5.748l-.8.109a12.463,12.463,0,0,0-4.938,2.267c-1.741,1.13-3.542,2.3-5.692,2.305h-.023c-2.322,0-4.088-1.233-5.8-2.425a11.51,11.51,0,0,0-3.764-2.009v2.176a14.93,14.93,0,0,1,4.951,2.458c1.54,1.039,2.87,1.938,4.6,1.938h.021c1.55-.007,3-.978,4.528-2.006,1.677-1.126,3.578-2.4,5.923-2.555l.987-.064v5.737l-.739.153a13.994,13.994,0,0,0-4.583,2.2c-1.829,1.171-3.721,2.381-6.1,2.381h-.009c-2.371,0-4.228-1.263-6.025-2.481a12.773,12.773,0,0,0-3.555-1.922v2.178a16.057,16.057,0,0,1,4.667,2.377c1.6,1.066,2.973,1.986,4.913,1.986,1.743,0,3.414-1.029,5.182-2.119,1.917-1.181,3.9-2.4,6.209-2.444l.034,1.853c-1.8.033-3.487,1.07-5.27,2.17C394.507,338.348,392.532,339.565,390.263,339.565Z" transform="translate(-4.03 -4.62)"/></g></svg>