<svg xmlns="http://www.w3.org/2000/svg" width="42" height="42" viewBox="0 0 42 42"><defs><style>.a{fill:#006e74;}</style></defs><g transform="translate(-541.448 -362.417)"><path class="a" d="M582.8,379.964,563.725,362.9a1.916,1.916,0,0,0-2.552,0L542.1,379.964a1.776,1.776,0,0,0-.175,2.58c.7.743,1.953.354,2.727-.312l17.8-15.919,17.8,15.923c.8.685,2.081,1.048,2.771.256a1.774,1.774,0,0,0-.219-2.524Z"/><path class="a" d="M581.054,396.882a1.692,1.692,0,0,0-1.644,1.9v18.076a2.335,2.335,0,0,1-2.343,2.324H555.006a2.335,2.335,0,0,1-2.343-2.324V398.778a1.73,1.73,0,0,0-1.7-1.9c-1.055,0-1.572.849-1.572,1.9v18.076a5.246,5.246,0,0,0,5.611,5.566h22.062a5.246,5.246,0,0,0,5.61-5.566V398.778A1.678,1.678,0,0,0,581.054,396.882Z" transform="translate(-3.588 -18.003)"/><path class="a" d="M569.906,398.012H563.83a1.391,1.391,0,0,0-1.393,1.393v6.076a1.391,1.391,0,0,0,1.393,1.393h6.076a1.391,1.391,0,0,0,1.393-1.393v-6.076A1.392,1.392,0,0,0,569.906,398.012Zm.5,7.47a.5.5,0,0,1-.5.5H563.83a.5.5,0,0,1-.5-.5v-6.076a.5.5,0,0,1,.5-.5h6.076a.5.5,0,0,1,.5.5Z" transform="translate(-9.385 -18.411)"/><path class="a" d="M587.873,398.012H581.79a1.392,1.392,0,0,0-1.393,1.393v6.076a1.391,1.391,0,0,0,1.393,1.393h6.076a1.391,1.391,0,0,0,1.393-1.393v-6.076A1.386,1.386,0,0,0,587.873,398.012Zm.5,7.47a.5.5,0,0,1-.5.5H581.79a.5.5,0,0,1-.5-.5v-6.076a.5.5,0,0,1,.5-.5h6.076a.5.5,0,0,1,.5.5v6.076Z" transform="translate(-17.415 -18.411)"/><path class="a" d="M569.906,415.908H563.83a1.391,1.391,0,0,0-1.393,1.393v6.076a1.391,1.391,0,0,0,1.393,1.393h6.076a1.391,1.391,0,0,0,1.393-1.393V417.3A1.392,1.392,0,0,0,569.906,415.908Zm.5,7.47a.5.5,0,0,1-.5.5H563.83a.5.5,0,0,1-.5-.5V417.3a.5.5,0,0,1,.5-.5h6.076a.5.5,0,0,1,.5.5Z" transform="translate(-9.385 -26.592)"/><path class="a" d="M587.873,415.908H581.79A1.392,1.392,0,0,0,580.4,417.3v6.076a1.391,1.391,0,0,0,1.393,1.393h6.076a1.391,1.391,0,0,0,1.393-1.393V417.3A1.386,1.386,0,0,0,587.873,415.908Zm.5,7.47a.5.5,0,0,1-.5.5H581.79a.5.5,0,0,1-.5-.5V417.3a.5.5,0,0,1,.5-.5h6.076a.5.5,0,0,1,.5.5v6.076Z" transform="translate(-17.415 -26.592)"/></g></svg>