<svg xmlns="http://www.w3.org/2000/svg" width="23.577" height="23.577" viewBox="0 0 23.577 23.577"><defs><style>.a{fill:#006e74;}</style></defs><path class="a" d="M2806.052,478h-3.368a1.689,1.689,0,0,0-1.684,1.684v3.368a1.689,1.689,0,0,0,1.684,1.684h3.368a1.689,1.689,0,0,0,1.684-1.684v-3.368A1.689,1.689,0,0,0,2806.052,478Zm0,5.052h-3.368v-3.368h3.368Zm0,3.368h-3.368A1.689,1.689,0,0,0,2801,488.1v3.368a1.689,1.689,0,0,0,1.684,1.684h3.368a1.689,1.689,0,0,0,1.684-1.684V488.1A1.689,1.689,0,0,0,2806.052,486.42Zm0,5.052h-3.368V488.1h3.368Zm0,3.368h-3.368a1.689,1.689,0,0,0-1.684,1.684v3.368a1.689,1.689,0,0,0,1.684,1.684h3.368a1.689,1.689,0,0,0,1.684-1.684v-3.368A1.689,1.689,0,0,0,2806.052,494.841Zm0,5.052h-3.368v-3.368h3.368Zm5.052-16.84h11.788a1.684,1.684,0,1,0,0-3.368H2811.1a1.684,1.684,0,0,0,0,3.368Zm11.788,5.052H2811.1a1.684,1.684,0,0,0,0,3.368h11.788a1.684,1.684,0,0,0,0-3.368Zm0,8.42H2811.1a1.684,1.684,0,0,0,0,3.368h11.788a1.684,1.684,0,1,0,0-3.368Z" transform="translate(-2801 -478)"/></svg>