<svg xmlns="http://www.w3.org/2000/svg" width="24.006" height="29.995" viewBox="0 0 24.006 29.995"><defs><style>.a{fill:#006e74;}</style></defs><path class="a" d="M2666.706,552a.751.751,0,0,1-.707-.789V537a.751.751,0,0,1,.707-.789H2689.3a.752.752,0,0,1,.707.789V551.21a.751.751,0,0,1-.707.789Zm.706-1.579h21.182V537.794h-21.182Zm17.652-3.156h-9.885a.794.794,0,0,1,0-1.579h9.885a.794.794,0,0,1,0,1.579Zm-14.122-4.734h0a.795.795,0,0,1,0-1.58h9.885a.795.795,0,0,1,0,1.58Zm6.354-10.264V524.7l-1.618,1.812,0,0a.654.654,0,0,1-1,0,.856.856,0,0,1,0-1.117l2.825-3.157,0,0a.653.653,0,0,1,1,0l2.825,3.157a.856.856,0,0,1,0,1.117.654.654,0,0,1-1,0l-1.618-1.809v7.565h0a.71.71,0,1,1-1.412,0Z" transform="translate(-2666 -522.005)"/></svg>