<svg xmlns="http://www.w3.org/2000/svg" width="26" height="31.68" viewBox="0 0 26 31.68"><defs><style>.a{fill:#006e74;}</style></defs><g transform="translate(-5.478 -3.179)"><path class="a" d="M7.478,33.22c0-6.514-.032-12.836.01-19.158a10.993,10.993,0,0,1,21.49-3.151,13.979,13.979,0,0,1,.5,3.868c.057,5.984.036,11.967.046,17.951,0,.109.051.217.037.161l1.913,1.2a7.586,7.586,0,0,1-2.172.709c-7.238.053-14.475.032-21.713.032a3.5,3.5,0,0,1-1.186-.042,3.72,3.72,0,0,1-.929-.755,4.075,4.075,0,0,1,.836-.675A4.318,4.318,0,0,1,7.478,33.22Zm20.4.059V13.755H9.128V33.28ZM27.57,12.072a9.324,9.324,0,0,0-9.863-7.3c-4.279.445-8.042,3.8-8.144,7.3Z" transform="translate(0 0)"/><path class="a" d="M15.982,16.61c-1.382,0-2.766.03-4.146-.025-.285-.011-.557-.336-.835-.517.281-.222.559-.633.844-.638,2.764-.049,5.53-.045,8.295-.005.283,0,.562.336.842.516-.284.223-.559.624-.853.638C18.75,16.648,17.365,16.61,15.982,16.61Z" transform="translate(2.474 3.021)"/><path class="a" d="M15.965,20.489c-1.291,0-2.583.042-3.87-.025-.373-.019-.73-.35-1.094-.538.333-.217.663-.617,1-.624,2.672-.051,5.345-.047,8.018,0,.323.005.641.349.962.535-.336.218-.662.6-1.009.625C18.64,20.532,17.3,20.489,15.965,20.489Z" transform="translate(2.474 3.98)"/></g></svg>