<svg xmlns="http://www.w3.org/2000/svg" width="32" height="32" viewBox="0 0 32 32"><defs><style>.a{fill:#006e74;}</style></defs><g transform="translate(-2 -2)"><path class="a" d="M33.467,2H2.533A.534.534,0,0,0,2,2.533V4.667a.534.534,0,0,0,.533.533V23.867a.534.534,0,0,0,.533.533H9.221L5.77,33.274a.533.533,0,0,0,.5.726H8.4a.532.532,0,0,0,.5-.34l3.6-9.26h11l3.6,9.26a.532.532,0,0,0,.5.34h2.133a.533.533,0,0,0,.5-.726L26.779,24.4h6.154a.534.534,0,0,0,.533-.533V5.2A.534.534,0,0,0,34,4.667V2.533A.534.534,0,0,0,33.467,2ZM3.067,3.067,32.933,4.133ZM32.4,23.333H3.6V5.2H32.4Z"/><path class="a" d="M10,35a2,2,0,1,0-2-2A2,2,0,0,0,10,35Zm0-3a1,1,0,1,1-1,1A1,1,0,0,1,10,32Z" transform="translate(-3 -13.385)"/><path class="a" d="M28,16l1.146-1.146L30.293,16,31,15.293l-1.146-1.146L31,13l-.707-.707L29.146,13.44,28,12.293,27.293,13l1.146,1.146-1.146,1.146Z" transform="translate(-11.685 -4.755)"/><path class="a" d="M45.293,29.293l-1.146,1.146L43,29.293,42.293,30l1.146,1.146-1.146,1.146L43,33l1.146-1.146L45.293,33,46,32.293l-1.146-1.146L46,30Z" transform="translate(-18.614 -12.608)"/><path class="a" d="M24.41,18.489l5.4-.489a.5.5,0,0,0,.308-.145l5.274-4.983-.226,3.16,1.626-1.9.1-3.382a.752.752,0,0,0-.626-.635l-3.121.243-2.4.746,3.611.625L29.47,16.26l-5.06.474a4.631,4.631,0,0,0-.553.232l-6.265,3.264L18,21.938Z" transform="translate(-6.763 -3.462)"/></g></svg>