<svg xmlns="http://www.w3.org/2000/svg" width="36" height="36" viewBox="0 0 36 36"><defs><style>.a{fill:#006e74;}</style></defs><g transform="translate(-14.7 -14.7)"><path class="a" d="M41.25,32.5A8.75,8.75,0,1,0,50,41.25,8.792,8.792,0,0,0,41.25,32.5Zm0,16a7.25,7.25,0,1,1,7.25-7.25A7.255,7.255,0,0,1,41.25,48.5Z" transform="translate(-8.576 -8.576)"/><path class="a" d="M49.325,29.314,47.187,28.4a2.281,2.281,0,0,1-1.171-1.12v-.1a2.386,2.386,0,0,1,0-1.68l.866-2.139a1.766,1.766,0,0,0-.255-2.19l-2.393-2.393a1.772,1.772,0,0,0-2.139-.255l-2.19.866A2.234,2.234,0,0,1,37,18.163l-.917-2.088a1.694,1.694,0,0,0-1.68-1.375H30.994a1.7,1.7,0,0,0-1.68,1.324L28.4,18.163a2.318,2.318,0,0,1-2.9,1.222l-2.139-.866a1.716,1.716,0,0,0-2.19.255l-2.393,2.393a1.772,1.772,0,0,0-.255,2.139l.866,2.19a2.234,2.234,0,0,1-1.222,2.9l-2.088.917a1.694,1.694,0,0,0-1.375,1.68v3.412a1.7,1.7,0,0,0,1.324,1.68L18.163,37a2.318,2.318,0,0,1,1.222,2.9l-.866,2.139a1.709,1.709,0,0,0,.255,2.19l2.393,2.393a1.772,1.772,0,0,0,2.139.255l2.19-.866a2.234,2.234,0,0,1,2.9,1.222l.917,2.088a1.694,1.694,0,0,0,1.68,1.375h3.412a1.7,1.7,0,0,0,1.68-1.324L37,47.237a2.318,2.318,0,0,1,2.9-1.222l2.139.866a1.716,1.716,0,0,0,2.19-.255l2.393-2.393a1.772,1.772,0,0,0,.255-2.139l-.866-2.19A2.234,2.234,0,0,1,47.237,37l2.088-.917a1.694,1.694,0,0,0,1.375-1.68V30.994A1.694,1.694,0,0,0,49.325,29.314ZM44.59,40.465l.917,2.24.051.153a.227.227,0,0,1,0,.255l-2.393,2.393c-.051.051-.2.1-.255,0l-2.393-.967a3.828,3.828,0,0,0-4.888,2.037l-.967,2.19-.1.2c0,.1-.1.153-.2.153H30.943c-.1,0-.2-.051-.2-.153l-1.018-2.393a3.79,3.79,0,0,0-4.888-2.037l-2.24.917-.153.051a.227.227,0,0,1-.255,0l-2.393-2.393c-.051-.051-.1-.2,0-.255l.967-2.393a3.875,3.875,0,0,0-2.037-4.888l-2.24-.967-.1-.051c-.1,0-.153-.1-.153-.2V30.943c0-.1.051-.2.153-.2l2.393-1.018a3.836,3.836,0,0,0,2.037-4.888l-.917-2.24-.051-.153a.227.227,0,0,1,0-.255l2.393-2.393c.051-.051.2-.1.255,0l2.393.967a3.875,3.875,0,0,0,4.888-2.037l.967-2.24.051-.153c0-.1.1-.153.2-.153h3.412c.1,0,.2.051.2.153l1.018,2.393a3.836,3.836,0,0,0,4.888,2.037l2.24-.917.153-.051a.227.227,0,0,1,.255,0l2.393,2.393c.051.051.1.2,0,.255l-.967,2.393a3.669,3.669,0,0,0,0,2.75v.1a3.707,3.707,0,0,0,1.986,2.037l2.24.967.153.051c.1,0,.153.1.153.2v3.412c0,.1-.051.2-.153.2l-2.393,1.018A3.85,3.85,0,0,0,44.59,40.465Z" transform="translate(0 0)"/></g></svg>