<svg xmlns="http://www.w3.org/2000/svg" width="57.449" height="24.276" viewBox="0 0 57.449 24.276"><defs><style>.a{fill:#006e74;}</style></defs><g transform="translate(-4.508 -30.5)"><path class="a" d="M77.706,50.854A3.566,3.566,0,0,0,80.4,49.2,8.209,8.209,0,0,0,82,44.515c0-2.8-1.924-5.072-4.3-5.072s-4.3,2.271-4.3,5.072a8.208,8.208,0,0,0,1.6,4.682A3.567,3.567,0,0,0,77.706,50.854Z" transform="translate(-25.524 -3.313)"/><path class="a" d="M72.513,62.63H86.036C85.953,58.4,83.1,57,79.186,55.765L77.08,61.356v-2.8l.376-1.039H75.323l.392,1.1-.013,2.7-2.366-5.558a16.559,16.559,0,0,0-3.825,1.34A7.807,7.807,0,0,1,72.513,62.63Z" transform="translate(-24.08 -9.359)"/><path class="a" d="M17.507,50.854A3.568,3.568,0,0,1,14.812,49.2a8.208,8.208,0,0,1-1.6-4.682c0-2.8,1.924-5.072,4.3-5.072s4.3,2.271,4.3,5.072A8.208,8.208,0,0,1,20.2,49.2,3.568,3.568,0,0,1,17.507,50.854Z" transform="translate(-3.224 -3.313)"/><path class="a" d="M18.58,62.63H4.508C4.592,58.4,7.449,57,11.358,55.765l2.106,5.591v-2.8l-.376-1.039h2.133l-.392,1.1.013,2.7,2.366-5.558a16.575,16.575,0,0,1,3.826,1.34C19.394,58.393,18.877,60.134,18.58,62.63Z" transform="translate(0 -9.359)"/><path class="a" d="M47.006,46.661a5.051,5.051,0,0,0,3.817-2.346,11.618,11.618,0,0,0,2.269-6.632c0-3.964-2.725-7.182-6.086-7.182s-6.084,3.218-6.084,7.182a11.621,11.621,0,0,0,2.27,6.632A5.046,5.046,0,0,0,47.006,46.661Z" transform="translate(-13.489)"/><path class="a" d="M53.154,56.66a20.713,20.713,0,0,0-6.573-3.046L43.6,61.533v-3.96l.533-1.471h-3.02l.555,1.565-.018,3.819-3.352-7.874c-6.487,1.587-9.616,3.52-9.707,9.725H56.282a10.919,10.919,0,0,0-.126-1.153A7.816,7.816,0,0,0,53.154,56.66Z" transform="translate(-8.92 -8.562)"/></g></svg>