<svg xmlns="http://www.w3.org/2000/svg" width="18" height="21.055" viewBox="0 0 18 21.055"><defs><style>.a{fill:#006e74;}</style></defs><g transform="translate(-474.178 -371.555)"><g transform="translate(474.178 371.555)"><g transform="translate(0)"><path class="a" d="M490.318,371.555H476.9c-1.7,0-2.723,1.018-2.723,2.3v16.45a2.3,2.3,0,0,0,2.3,2.3h13.395a2.3,2.3,0,0,0,2.3-2.3v-16.45A2.289,2.289,0,0,0,490.318,371.555Zm.244,18.731a.7.7,0,0,1-.708.708H476.458a.7.7,0,0,1-.708-.708V373.858c0-.4.31-.708,1.151-.708H490.3a1.675,1.675,0,0,1,.266.708Z" transform="translate(-474.178 -371.555)"/><path class="a" d="M509.382,424.255h-6.853a.851.851,0,1,0,0,1.7h6.853a.851.851,0,0,0,0-1.7Z" transform="translate(-495.919 -412.651)"/><path class="a" d="M509.382,438.488h-6.853a.851.851,0,1,0,0,1.7h6.853a.851.851,0,0,0,0-1.7Z" transform="translate(-495.919 -423.751)"/></g></g><path class="a" d="M493.276,381.277a.693.693,0,0,1-.492-.2l-2.537-1.593-2.773,1.593a.694.694,0,0,1-1.186-.492v-6.944a2.083,2.083,0,0,1,2.083-2.083h6.988a.694.694,0,1,1,0,1.389h-.694a.694.694,0,0,0-.694.695v6.944a.7.7,0,0,1-.429.642A.687.687,0,0,1,493.276,381.277Z" transform="translate(-9.248)"/><path class="a" d="M487.375,424.255h-.236a.851.851,0,0,0,0,1.7h.236a.851.851,0,0,0,0-1.7Z" transform="translate(-9.248 -41.096)"/><path class="a" d="M487.375,438.488h-.236a.851.851,0,0,0,0,1.7h.236a.851.851,0,1,0,0-1.7Z" transform="translate(-9.248 -52.196)"/></g></svg>