<svg xmlns="http://www.w3.org/2000/svg" width="24.835" height="22.233" viewBox="0 0 24.835 22.233"><defs><style>.a{fill:#9d9d9d;}</style></defs><g transform="translate(-8.67 -13)"><path class="a" d="M19.271,28.408H36.895a.6.6,0,0,0,.6-.6V23.6a.6.6,0,0,0-.6-.6H19.271a.6.6,0,0,0-.6.6v4.206A.6.6,0,0,0,19.271,28.408Zm.6-4.206H36.294v3H19.872Z" transform="translate(-6.996 -6.996)"/><path class="a" d="M19.271,55.614H26.68a.6.6,0,0,0,.6-.6V46.6a.6.6,0,0,0-.6-.6H19.271a.6.6,0,0,0-.6.6v8.412A.6.6,0,0,0,19.271,55.614Zm.6-8.412h6.207v7.211H19.872Z" transform="translate(-6.996 -23.085)"/><path class="a" d="M60.68,46H53.271a.6.6,0,0,0-.6.6v8.412a.6.6,0,0,0,.6.6H60.68a.6.6,0,0,0,.6-.6V46.6A.6.6,0,0,0,60.68,46Zm-.6,8.412H53.872V47.2h6.207Z" transform="translate(-30.78 -23.085)"/><path class="a" d="M33.5,34.632V13.6a.6.6,0,0,0-.6-.6H9.271a.6.6,0,0,0-.6.6V34.632a.6.6,0,0,0,.6.6H32.9A.6.6,0,0,0,33.5,34.632Zm-1.2-.6H9.872V14.2H32.3Z"/></g></svg>